<svg width="37" height="36" viewBox="0 0 37 36" fill="none" xmlns="http://www.w3.org/2000/svg">
<path d="M13.8658 0.0873936C12.5785 0.404066 11.5304 1.5363 11.2982 2.85883C10.9327 5.01822 12.9653 7.05125 15.1247 6.68535C16.5457 6.43921 17.6923 5.29265 17.9384 3.87167C18.3253 1.60683 16.1027 -0.454109 13.8658 0.0873936Z" fill="#F2F2F2"/>
<path d="M1.59825 2.33833C1.21141 2.47205 0.923026 2.71121 0.733096 3.03486C0.339277 3.70311 0.360217 4.46283 0.782324 4.94812C0.943966 5.13107 2.6886 6.16485 7.2326 8.77464L13.4577 12.348L13.4929 23.5605L13.5282 34.773L13.6972 35.1106C13.9995 35.7296 14.6961 36.0603 15.5329 35.9828C16.1729 35.9265 16.609 35.6521 16.8904 35.1246C17.045 34.8432 17.045 34.8079 17.0663 29.7996L17.0873 24.7493H24.3112C32.4988 24.7493 31.9643 24.7846 32.5554 24.1935C32.9139 23.8349 33.0476 23.49 33.0476 22.9275C33.0476 22.231 32.6468 21.7527 31.8449 21.5066C31.4437 21.3798 31.1344 21.3728 26.2598 21.3728C22.7709 21.3728 20.977 21.3446 20.7239 21.2953C19.4506 21.0279 18.3393 19.9166 18.0722 18.6433C18.023 18.4041 17.9947 17.0746 17.9947 14.866V11.4686L23.2492 8.38045C26.14 6.68541 28.5951 5.22218 28.7145 5.12372C28.9889 4.89155 29.249 4.31478 29.249 3.92794C29.2421 3.00657 28.3556 2.17632 27.4552 2.25384C27.1245 2.28212 26.4633 2.64067 21.0119 5.7218C17.6707 7.60677 14.9136 9.16846 14.8853 9.18242C14.857 9.19638 12.1631 7.69825 8.90633 5.85516C5.64299 4.01243 2.85061 2.44377 2.69558 2.3736C2.36495 2.21894 1.95717 2.21159 1.59825 2.33833Z" fill="#F2F2F2"/>
<path d="M31.5003 8.43004C31.5003 9.99173 31.4933 10.1181 31.3805 10.1181C31.31 10.1181 31.1204 10.1813 30.9514 10.2588C30.7193 10.3642 30.6208 10.4627 30.5154 10.6949C30.234 11.3139 30.4309 11.9891 30.9514 12.2283C31.5705 12.5097 32.2457 12.3128 32.4848 11.7922C32.6116 11.5178 32.6255 11.3209 32.6255 9.67506V7.86723H33.7512H34.8768V8.99248C34.8768 10.0196 34.8628 10.1181 34.757 10.1181C34.6869 10.1181 34.4969 10.1813 34.3279 10.2588C34.0958 10.3642 33.9973 10.4627 33.8919 10.6949C33.6105 11.3139 33.8074 11.9891 34.3279 12.2283C34.947 12.5097 35.6222 12.3128 35.8613 11.7922C35.9881 11.5108 36.002 11.3139 36.002 9.11225V6.74161H33.7512H31.5003V8.43004V8.43004Z" fill="#F2F2F2"/>
<path d="M1.11298 19.6845C1.11298 21.2458 1.106 21.3726 0.993214 21.3726C0.92268 21.3726 0.733117 21.4358 0.564127 21.5133C0.043932 21.7524 -0.152978 22.428 0.128427 23.0467C0.233862 23.2788 0.332317 23.3773 0.564494 23.4827C1.18351 23.7641 1.85874 23.5672 2.09789 23.0467C2.22464 22.7722 2.2386 22.5753 2.2386 20.9295V19.1217H3.36422H4.48984V20.2469C4.48984 21.2741 4.47588 21.3726 4.37007 21.3726C4.29991 21.3726 4.10998 21.4358 3.94099 21.5133C3.42042 21.7524 3.22351 22.4276 3.50492 23.0467C3.84951 23.8064 5.12979 23.8064 5.47439 23.0467C5.60113 22.7653 5.61509 22.5684 5.61509 20.3667V17.9964H3.36422H1.11298V19.6845Z" fill="#F2F2F2"/>
</svg>
