<svg width="25" height="37" viewBox="0 0 25 37" fill="none" xmlns="http://www.w3.org/2000/svg">
<path d="M14.9078 2.56912H14.9151H14.9078ZM14.9078 2.56912L12.4631 15.9856L21.5062 16.3992L9.09981 33.3766L10.8821 20.4688L2.50134 19.7039L14.9078 2.56912ZM14.9078 0.365967C14.8456 0.365967 14.787 0.369627 14.7284 0.373286C14.3332 0.406224 14.0734 0.534314 13.7659 0.739258C13.5939 0.852709 13.4366 0.988118 13.2975 1.14915C13.2572 1.19672 13.2206 1.2443 13.184 1.29553L0.689779 18.3791C0.195717 19.0488 0.122522 19.9308 0.503133 20.6664C0.880084 21.402 1.64862 21.8705 2.4867 21.8778L8.33493 22.5914L6.89666 33.7096C6.70635 34.7234 7.25165 35.7335 8.21415 36.1397C8.73383 36.4325 9.64144 35.997 10.0733 35.4114L23.3178 17.6984C23.8119 17.0287 24.617 16.1467 24.24 15.4111C23.8631 14.6718 22.3626 14.207 21.5245 14.1997L14.9407 14.3388L17.089 3.82806C17.1292 3.65971 17.1512 3.4877 17.1512 3.30838C17.1512 2.11531 16.1887 0.409883 14.9883 0.373286C14.9627 0.365967 14.9334 0.365967 14.9078 0.365967Z" fill="#F2F2F2"/>
</svg>
