<svg width="1328" height="396" viewBox="0 0 1328 396" fill="none" xmlns="http://www.w3.org/2000/svg">
<rect width="1328" height="396" fill="#D7FFE0"/>
<path d="M449.894 316.139V319.2H457.141V326.834H460.318V319.2H467.603V316.139H460.318V308.582H457.141V316.139H449.894ZM471.106 323.153H483.429V328.811H487.11V323.153H491.412V319.626H487.11V303.7H481.879L471.106 318.774V323.153ZM483.429 319.626H474.594L483.429 307.342V319.626Z" fill="black"/>
<path d="M644.84 316.139V319.2H652.087V326.834H655.264V319.2H662.55V316.139H655.264V308.582H652.087V316.139H644.84ZM674.296 328.811V303.7H670.963C670.382 306.412 667.979 308.35 664.492 308.427V311.101H670.576V328.811H674.296Z" fill="black"/>
<path d="M823.98 316.139V319.2H831.227V326.834H834.404V319.2H841.689V316.139H834.404V308.582H831.227V316.139H823.98ZM853.435 328.811V303.7H850.103C849.521 306.412 847.119 308.35 843.631 308.427V311.101H849.715V328.811H853.435ZM861.977 312.729C861.938 312.341 861.9 311.954 861.9 311.605C861.9 308.737 863.45 306.451 866.743 306.451C869.921 306.451 871.471 308.582 871.471 310.869C871.471 312.806 870.386 314.589 868.022 316.1L863.837 318.813C859.574 321.564 857.947 324.703 857.869 328.811H875.463V325.284H862.558C862.907 323.734 864.186 322.688 865.62 321.758L870.58 318.58C873.448 316.759 875.308 314.124 875.308 310.83C875.308 306.645 872.207 303.118 866.821 303.118C861.318 303.118 858.141 306.955 858.141 311.256C858.141 311.566 858.141 311.915 858.179 312.264L861.977 312.729Z" fill="black"/>
<path d="M1034.73 316.139V319.2H1041.98V326.834H1045.16V319.2H1052.44V316.139H1045.16V308.582H1041.98V316.139H1034.73ZM1056.42 327.919C1057.66 328.772 1060.29 329.392 1062.23 329.392C1070.68 329.392 1074.79 323.889 1074.79 314.666C1074.79 306.645 1069.94 303.118 1065.02 303.118C1060.1 303.118 1055.76 306.606 1055.76 311.799C1055.76 317.34 1060.1 320.285 1064.44 320.285C1067.85 320.285 1070.06 318.735 1070.95 317.069C1070.8 321.99 1068.32 325.982 1062.23 325.982C1060.6 325.982 1058.74 325.439 1057.66 324.78L1056.42 327.919ZM1070.45 311.721C1070.45 315.054 1067.81 317.03 1065.02 317.03C1062.15 317.03 1059.6 315.131 1059.6 311.721C1059.6 308.427 1062.23 306.451 1065.02 306.451C1067.77 306.451 1070.45 308.466 1070.45 311.721Z" fill="black"/>
<rect x="428.627" y="81.9376" width="101.501" height="190.201" fill="#AFE9B5" stroke="#414D44" stroke-width="3.87515"/>
<rect x="623.573" y="176.354" width="101.501" height="95.7856" fill="#DD877F" stroke="#414D44" stroke-width="3.87515"/>
<rect x="818.518" y="81.9376" width="101.501" height="190.201" fill="#E6DB9E" stroke="#414D44" stroke-width="3.87515"/>
<rect x="1013.46" y="165.862" width="101.501" height="106.276" fill="#9AE0E9" stroke="#414D44" stroke-width="3.87515"/>
<rect x="468.839" y="132.452" width="21.0753" height="141.623" fill="#9EDFA2"/>
<rect x="1053.68" y="216.376" width="21.0753" height="52.453" fill="#80D2EC"/>
<rect x="858.73" y="127.209" width="21.0753" height="141.623" fill="#ECCC81"/>
<rect x="663.784" y="216.376" width="21.0753" height="57.6983" fill="#E05355"/>
<rect x="453.032" y="95.7358" width="52.6882" height="36.7171" rx="18.3586" fill="#9EDFA2"/>
<rect x="1037.87" y="190.153" width="52.6882" height="36.7171" rx="18.3586" fill="#80D2EC"/>
<rect x="647.978" y="179.662" width="52.6882" height="36.7171" rx="18.3586" fill="#E05355"/>
<rect x="842.925" y="111.473" width="52.6882" height="36.7171" rx="18.3586" fill="#ECCC81"/>
<line x1="374" y1="272.14" x2="1164.32" y2="272.14" stroke="black" stroke-width="3.87515"/>
<circle cx="181.129" cy="191.129" r="102.129" fill="white"/>
<circle cx="181.02" cy="191.02" r="61.9696" fill="white" stroke="black" stroke-width="2.10066"/>
<path d="M172.304 174.435L197.798 189.554C198.441 189.936 198.43 190.872 197.778 191.238L171.937 205.757C171.284 206.124 170.48 205.646 170.489 204.898L170.835 175.26C170.844 174.511 171.66 174.053 172.304 174.435Z" fill="#333333" stroke="black" stroke-width="0.388926"/>
</svg>
