<svg width="36" height="36" viewBox="0 0 36 36" fill="none" xmlns="http://www.w3.org/2000/svg">
<path d="M18 0C8.05959 0 0 8.05959 0 18C0 27.9441 8.05959 36 18 36C27.9404 36 36 27.9441 36 18C36 8.05959 27.9404 0 18 0ZM24.4947 8.08898C26.28 8.08898 27.731 9.54 27.731 11.3253C27.731 13.1143 26.28 14.558 24.4947 14.558C22.7057 14.558 21.2584 13.1143 21.2584 11.3253C21.2584 9.54 22.7057 8.08898 24.4947 8.08898ZM11.5053 8.08898C13.2906 8.08898 14.7416 9.54 14.7416 11.3253C14.7416 13.1143 13.2906 14.558 11.5053 14.558C9.71633 14.558 8.26898 13.1143 8.26898 11.3253C8.26898 9.54 9.72 8.08898 11.5053 8.08898ZM18 30.4604C11.5016 30.4604 6.17143 25.4829 5.59469 19.1314H30.4016C29.8286 25.4829 24.4984 30.4604 18 30.4604Z" fill="#DDDDDD"/>
</svg>
