<svg width="600" height="200" viewBox="0 0 600 200" fill="none" xmlns="http://www.w3.org/2000/svg">
<rect width="600" height="200" rx="20" fill="#BEE1C6"/>
<path d="M58.7422 58.0469C58.7422 56.7188 58.2734 55.7031 57.3359 55C56.3984 54.2812 54.7109 53.5312 52.2734 52.75C49.8359 51.9531 47.9062 51.1719 46.4844 50.4062C42.6094 48.3125 40.6719 45.4922 40.6719 41.9453C40.6719 40.1016 41.1875 38.4609 42.2188 37.0234C43.2656 35.5703 44.7578 34.4375 46.6953 33.625C48.6484 32.8125 50.8359 32.4062 53.2578 32.4062C55.6953 32.4062 57.8672 32.8516 59.7734 33.7422C61.6797 34.6172 63.1562 35.8594 64.2031 37.4688C65.2656 39.0781 65.7969 40.9062 65.7969 42.9531H58.7656C58.7656 41.3906 58.2734 40.1797 57.2891 39.3203C56.3047 38.4453 54.9219 38.0078 53.1406 38.0078C51.4219 38.0078 50.0859 38.375 49.1328 39.1094C48.1797 39.8281 47.7031 40.7812 47.7031 41.9688C47.7031 43.0781 48.2578 44.0078 49.3672 44.7578C50.4922 45.5078 52.1406 46.2109 54.3125 46.8672C58.3125 48.0703 61.2266 49.5625 63.0547 51.3438C64.8828 53.125 65.7969 55.3438 65.7969 58C65.7969 60.9531 64.6797 63.2734 62.4453 64.9609C60.2109 66.6328 57.2031 67.4688 53.4219 67.4688C50.7969 67.4688 48.4062 66.9922 46.25 66.0391C44.0938 65.0703 42.4453 63.75 41.3047 62.0781C40.1797 60.4062 39.6172 58.4688 39.6172 56.2656H46.6719C46.6719 60.0312 48.9219 61.9141 53.4219 61.9141C55.0938 61.9141 56.3984 61.5781 57.3359 60.9062C58.2734 60.2188 58.7422 59.2656 58.7422 58.0469ZM69.0781 54.0859C69.0781 51.5703 69.5625 49.3281 70.5312 47.3594C71.5 45.3906 72.8906 43.8672 74.7031 42.7891C76.5312 41.7109 78.6484 41.1719 81.0547 41.1719C84.4766 41.1719 87.2656 42.2188 89.4219 44.3125C91.5938 46.4062 92.8047 49.25 93.0547 52.8438L93.1016 54.5781C93.1016 58.4688 92.0156 61.5938 89.8438 63.9531C87.6719 66.2969 84.7578 67.4688 81.1016 67.4688C77.4453 67.4688 74.5234 66.2969 72.3359 63.9531C70.1641 61.6094 69.0781 58.4219 69.0781 54.3906V54.0859ZM75.8516 54.5781C75.8516 56.9844 76.3047 58.8281 77.2109 60.1094C78.1172 61.375 79.4141 62.0078 81.1016 62.0078C82.7422 62.0078 84.0234 61.3828 84.9453 60.1328C85.8672 58.8672 86.3281 56.8516 86.3281 54.0859C86.3281 51.7266 85.8672 49.8984 84.9453 48.6016C84.0234 47.3047 82.7266 46.6562 81.0547 46.6562C79.3984 46.6562 78.1172 47.3047 77.2109 48.6016C76.3047 49.8828 75.8516 51.875 75.8516 54.5781ZM103.508 41.6406L103.719 44.5703C105.531 42.3047 107.961 41.1719 111.008 41.1719C113.695 41.1719 115.695 41.9609 117.008 43.5391C118.32 45.1172 118.992 47.4766 119.023 50.6172V67H112.25V50.7812C112.25 49.3438 111.938 48.3047 111.312 47.6641C110.688 47.0078 109.648 46.6797 108.195 46.6797C106.289 46.6797 104.859 47.4922 103.906 49.1172V67H97.1328V41.6406H103.508ZM123.195 54.1328C123.195 50.2422 124.117 47.1094 125.961 44.7344C127.82 42.3594 130.32 41.1719 133.461 41.1719C136.242 41.1719 138.406 42.125 139.953 44.0312L140.234 41.6406H146.375V66.1562C146.375 68.375 145.867 70.3047 144.852 71.9453C143.852 73.5859 142.438 74.8359 140.609 75.6953C138.781 76.5547 136.641 76.9844 134.188 76.9844C132.328 76.9844 130.516 76.6094 128.75 75.8594C126.984 75.125 125.648 74.1719 124.742 73L127.742 68.875C129.43 70.7656 131.477 71.7109 133.883 71.7109C135.68 71.7109 137.078 71.2266 138.078 70.2578C139.078 69.3047 139.578 67.9453 139.578 66.1797V64.8203C138.016 66.5859 135.961 67.4688 133.414 67.4688C130.367 67.4688 127.898 66.2812 126.008 63.9062C124.133 61.5156 123.195 58.3516 123.195 54.4141V54.1328ZM129.969 54.625C129.969 56.9219 130.43 58.7266 131.352 60.0391C132.273 61.3359 133.539 61.9844 135.148 61.9844C137.211 61.9844 138.688 61.2109 139.578 59.6641V49C138.672 47.4531 137.211 46.6797 135.195 46.6797C133.57 46.6797 132.289 47.3438 131.352 48.6719C130.43 50 129.969 51.9844 129.969 54.625Z" fill="#0F7F12"/>
<path d="M85.7422 129.438C85.4297 132.031 84.7188 134.367 83.6094 136.445C82.5 138.523 81.1562 140.062 79.5781 141.062C78 142.062 76.25 142.539 74.3281 142.492C71.2656 142.43 68.9922 141.281 67.5078 139.047L66.6406 142H62.7266L68.9844 106H73.2266L70.6719 119.453C72.7031 117.203 75.1719 116.109 78.0781 116.172C80.5156 116.234 82.4141 117.133 83.7734 118.867C85.1328 120.602 85.8516 122.992 85.9297 126.039C85.9453 127.039 85.8984 128.008 85.7891 128.945L85.7422 129.438ZM81.7109 126.977C81.7578 124.695 81.375 122.953 80.5625 121.75C79.75 120.531 78.5078 119.891 76.8359 119.828C74.1953 119.766 71.9609 121.094 70.1328 123.812L68.2344 134.852C69.1719 137.43 70.9297 138.75 73.5078 138.812C75.1641 138.875 76.6094 138.383 77.8438 137.336C79.0938 136.289 80.0391 134.828 80.6797 132.953C81.3203 131.062 81.6641 129.07 81.7109 126.977ZM97.9297 135.602L106.953 116.641H111.641L96.5938 146.219C94.5 150.328 91.8125 152.359 88.5312 152.312C87.9531 152.297 87.1016 152.156 85.9766 151.891L86.3516 148.375L87.4531 148.492C88.7969 148.555 89.9531 148.25 90.9219 147.578C91.9062 146.922 92.7734 145.852 93.5234 144.367L95.0469 141.461L90.6641 116.641H95.0938L97.9297 135.602ZM143.445 133.094H129.617L124.953 142H120.242L138.781 107.875H142.648L149.398 142H145.062L143.445 133.094ZM131.562 129.391H142.789L139.953 113.477L131.562 129.391ZM169.25 120.508L167.258 120.297C164.539 120.297 162.398 121.523 160.836 123.977L157.719 142H153.477L157.883 116.641L161.984 116.617L161.352 119.57C163.148 117.211 165.266 116.062 167.703 116.125C168.219 116.125 168.891 116.242 169.719 116.477L169.25 120.508ZM181.836 110.5L180.758 116.641H185.375L184.789 119.992H180.195L177.547 135.766C177.5 136.172 177.492 136.547 177.523 136.891C177.633 138.109 178.297 138.719 179.516 138.719C180.031 138.719 180.719 138.641 181.578 138.484L181.25 142.023C180.234 142.305 179.203 142.445 178.156 142.445C176.469 142.414 175.203 141.797 174.359 140.594C173.516 139.375 173.188 137.742 173.375 135.695L175.953 119.992H171.477L172.062 116.641H176.539L177.617 110.5H181.836ZM190.695 142H186.477L190.883 116.641H195.102L190.695 142ZM194.188 107.383C194.906 107.352 195.5 107.57 195.969 108.039C196.453 108.492 196.695 109.094 196.695 109.844C196.68 110.578 196.438 111.18 195.969 111.648C195.516 112.117 194.922 112.367 194.188 112.398C193.453 112.43 192.852 112.219 192.383 111.766C191.914 111.312 191.688 110.719 191.703 109.984C191.719 109.25 191.953 108.641 192.406 108.156C192.859 107.672 193.453 107.414 194.188 107.383ZM213.336 135.133C213.57 133.383 212.609 132.148 210.453 131.43L206.047 130.141C202.328 128.859 200.531 126.734 200.656 123.766C200.766 121.531 201.781 119.703 203.703 118.281C205.641 116.844 207.914 116.141 210.523 116.172C213.086 116.203 215.164 116.953 216.758 118.422C218.367 119.875 219.141 121.773 219.078 124.117L214.859 124.094C214.891 122.828 214.492 121.797 213.664 121C212.836 120.203 211.734 119.789 210.359 119.758C208.891 119.727 207.625 120.086 206.562 120.836C205.578 121.539 205.008 122.461 204.852 123.602C204.648 125.07 205.547 126.141 207.547 126.812L209.68 127.398C212.586 128.148 214.648 129.125 215.867 130.328C217.086 131.531 217.648 133.023 217.555 134.805C217.461 136.383 216.945 137.758 216.008 138.93C215.07 140.102 213.82 141 212.258 141.625C210.695 142.234 209.031 142.516 207.266 142.469C204.578 142.438 202.359 141.656 200.609 140.125C198.859 138.578 198.016 136.594 198.078 134.172L202.32 134.195C202.32 135.617 202.773 136.758 203.68 137.617C204.586 138.477 205.828 138.906 207.406 138.906C208.953 138.938 210.289 138.617 211.414 137.945C212.539 137.258 213.18 136.32 213.336 135.133ZM233.07 110.5L231.992 116.641H236.609L236.023 119.992H231.43L228.781 135.766C228.734 136.172 228.727 136.547 228.758 136.891C228.867 138.109 229.531 138.719 230.75 138.719C231.266 138.719 231.953 138.641 232.812 138.484L232.484 142.023C231.469 142.305 230.438 142.445 229.391 142.445C227.703 142.414 226.438 141.797 225.594 140.594C224.75 139.375 224.422 137.742 224.609 135.695L227.188 119.992H222.711L223.297 116.641H227.773L228.852 110.5H233.07Z" fill="black"/>
<path d="M569.766 147.031C570.217 147.031 570.583 146.665 570.583 146.214V138.286C570.583 137.835 570.217 137.469 569.766 137.469H568.114C567.663 137.469 567.297 137.835 567.297 138.286C567.297 138.738 567.663 139.104 568.114 139.104H568.948V146.214C568.948 146.665 569.314 147.031 569.766 147.031Z" fill="#8D8D8D"/>
<path d="M548.737 147.031C549.188 147.031 549.554 146.665 549.554 146.214V138.286C549.554 137.835 549.188 137.469 548.737 137.469H547.085C546.634 137.469 546.268 137.835 546.268 138.286C546.268 138.738 546.634 139.104 547.085 139.104H547.919V146.214C547.919 146.665 548.285 147.031 548.737 147.031Z" fill="#8D8D8D"/>
<path d="M565.409 140.489C565.409 138.824 564.054 137.469 562.389 137.469C560.724 137.469 559.369 138.824 559.369 140.489V144.011C559.369 145.676 560.724 147.031 562.389 147.031C564.054 147.031 565.409 145.676 565.409 144.011V140.489ZM563.774 144.011C563.774 144.775 563.153 145.396 562.389 145.396C561.625 145.396 561.004 144.775 561.004 144.011V140.489C561.004 139.725 561.625 139.104 562.389 139.104C563.153 139.104 563.774 139.725 563.774 140.489V144.011Z" fill="#8D8D8D"/>
<path d="M554.462 137.469C552.797 137.469 551.442 138.824 551.442 140.489V144.011C551.442 145.676 552.797 147.031 554.462 147.031C556.127 147.031 557.482 145.676 557.482 144.011V140.489C557.482 138.824 556.127 137.469 554.462 137.469ZM555.847 144.011C555.847 144.775 555.226 145.396 554.462 145.396C553.698 145.396 553.077 144.775 553.077 144.011V140.489C553.077 139.725 553.698 139.104 554.462 139.104C555.226 139.104 555.847 139.725 555.847 140.489V144.011Z" fill="#8D8D8D"/>
<path d="M535.635 137.469H533.983C533.532 137.469 533.166 137.835 533.166 138.286C533.166 138.738 533.532 139.104 533.983 139.104H534.817V146.214C534.817 146.665 535.183 147.031 535.635 147.031C536.086 147.031 536.452 146.665 536.452 146.214V138.286C536.452 137.835 536.086 137.469 535.635 137.469Z" fill="#8D8D8D"/>
<path d="M544.38 140.489C544.38 138.824 543.025 137.469 541.36 137.469C539.695 137.469 538.34 138.824 538.34 140.489V144.011C538.34 145.676 539.695 147.031 541.36 147.031C543.025 147.031 544.38 145.676 544.38 144.011V140.489ZM542.745 144.011C542.745 144.775 542.124 145.396 541.36 145.396C540.596 145.396 539.975 144.775 539.975 144.011V140.489C539.975 139.725 540.596 139.104 541.36 139.104C542.124 139.104 542.745 139.725 542.745 140.489V144.011Z" fill="#8D8D8D"/>
<path d="M564.04 158.482C564.492 158.482 564.858 158.116 564.858 157.664V149.737C564.858 149.285 564.492 148.919 564.04 148.919H562.389C561.937 148.919 561.571 149.285 561.571 149.737C561.571 150.188 561.937 150.554 562.389 150.554H563.223V157.664C563.223 158.116 563.589 158.482 564.04 158.482Z" fill="#8D8D8D"/>
<path d="M543.011 158.482C543.463 158.482 543.829 158.116 543.829 157.664V149.737C543.829 149.285 543.463 148.919 543.011 148.919H541.36C540.908 148.919 540.542 149.285 540.542 149.737C540.542 150.188 540.908 150.554 541.36 150.554H542.194V157.664C542.194 158.116 542.56 158.482 543.011 158.482Z" fill="#8D8D8D"/>
<path d="M556.664 148.919C554.999 148.919 553.644 150.274 553.644 151.939V155.462C553.644 157.127 554.999 158.482 556.664 158.482C558.329 158.482 559.684 157.127 559.684 155.462V151.939C559.684 150.274 558.329 148.919 556.664 148.919V148.919ZM558.049 155.462C558.049 156.225 557.428 156.847 556.664 156.847C555.9 156.847 555.279 156.225 555.279 155.462V151.939C555.279 151.176 555.9 150.554 556.664 150.554C557.428 150.554 558.049 151.176 558.049 151.939V155.462Z" fill="#8D8D8D"/>
<path d="M545.716 155.462C545.716 157.127 547.071 158.482 548.736 158.482C550.401 158.482 551.756 157.127 551.756 155.462V151.939C551.756 150.274 550.401 148.919 548.736 148.919C547.071 148.919 545.716 150.274 545.716 151.939V155.462ZM547.351 151.939C547.351 151.176 547.972 150.554 548.736 150.554C549.5 150.554 550.121 151.176 550.121 151.939V155.462C550.121 156.225 549.5 156.847 548.736 156.847C547.972 156.847 547.351 156.225 547.351 155.462V151.939Z" fill="#8D8D8D"/>
<path d="M535.635 148.919C533.97 148.919 532.615 150.274 532.615 151.939V155.462C532.615 157.127 533.97 158.482 535.635 158.482C537.3 158.482 538.655 157.127 538.655 155.462V151.939C538.655 150.274 537.3 148.919 535.635 148.919V148.919ZM537.02 155.462C537.02 156.225 536.399 156.847 535.635 156.847C534.871 156.847 534.25 156.225 534.25 155.462V151.939C534.25 151.176 534.871 150.554 535.635 150.554C536.399 150.554 537.02 151.176 537.02 151.939V155.462Z" fill="#8D8D8D"/>
<path d="M566.746 155.462C566.746 157.127 568.101 158.482 569.766 158.482C571.431 158.482 572.786 157.127 572.786 155.462V151.939C572.786 150.274 571.431 148.919 569.766 148.919C568.101 148.919 566.746 150.274 566.746 151.939V155.462ZM568.381 151.939C568.381 151.176 569.002 150.554 569.766 150.554C570.53 150.554 571.151 151.176 571.151 151.939V155.462C571.151 156.225 570.53 156.847 569.766 156.847C569.002 156.847 568.381 156.225 568.381 155.462V151.939Z" fill="#8D8D8D"/>
<path d="M532.516 131.524H529.14C528.688 131.524 528.322 131.89 528.322 132.341V163.61C528.322 164.061 528.688 164.427 529.14 164.427H576.261C576.713 164.427 577.079 164.061 577.079 163.61V132.341C577.079 131.89 576.713 131.524 576.261 131.524H536.331C535.879 131.524 535.513 131.89 535.513 132.341C535.513 132.793 535.879 133.159 536.331 133.159H575.444V162.792H529.957V133.159H532.516C532.968 133.159 533.334 132.793 533.334 132.341C533.334 131.89 532.968 131.524 532.516 131.524V131.524Z" fill="#8D8D8D"/>
<path d="M577.583 128H527.818C526.153 128 524.798 129.355 524.798 131.02V164.931C524.798 166.596 526.153 167.95 527.818 167.95H545.36L544.514 173.361H542.572C542.12 173.361 541.754 173.727 541.754 174.179V177.703C541.754 178.154 542.12 178.52 542.572 178.52H562.829C563.281 178.52 563.647 178.154 563.647 177.703V174.179C563.647 173.727 563.281 173.361 562.829 173.361H560.887L560.041 167.95H568.457C568.909 167.95 569.275 167.584 569.275 167.133C569.275 166.681 568.909 166.315 568.457 166.315H527.818C527.054 166.315 526.433 165.694 526.433 164.931V131.02C526.433 130.256 527.054 129.635 527.818 129.635H577.583C578.347 129.635 578.968 130.256 578.968 131.02V164.931C578.968 165.694 578.347 166.315 577.583 166.315H572.272C571.821 166.315 571.455 166.681 571.455 167.133C571.455 167.584 571.821 167.95 572.272 167.95H577.583C579.248 167.95 580.602 166.596 580.602 164.931V131.02C580.602 129.355 579.248 128 577.583 128V128ZM559.232 173.361H557.8C557.349 173.361 556.983 173.727 556.983 174.179C556.983 174.63 557.349 174.996 557.8 174.996H562.012V176.885H543.389V174.996H553.985C554.437 174.996 554.803 174.63 554.803 174.179C554.803 173.727 554.437 173.361 553.985 173.361H546.169L547.014 167.95H558.387L559.232 173.361Z" fill="#8D8D8D"/>
<rect x="503" y="144.567" width="24.0873" height="6.75751" fill="#8D8D8D"/>
<path d="M533.209 146.132C533.931 146.552 533.931 147.595 533.209 148.015L518.481 156.596C517.754 157.02 516.842 156.495 516.842 155.654V138.493C516.842 137.652 517.754 137.128 518.481 137.551L533.209 146.132Z" fill="#8D8D8D"/>
<rect x="553.79" y="173.363" width="4.25069" height="1.63488" fill="#8D8D8D"/>
<rect x="567.741" y="166.322" width="5.23162" height="1.63488" fill="#8D8D8D"/>
<rect x="532.101" y="131.52" width="4.57767" height="1.63488" fill="#8D8D8D"/>
<line x1="521.785" y1="81.0954" x2="574.88" y2="28" stroke="#FF4747" stroke-width="16.8356" stroke-linecap="round"/>
<line x1="521.905" y1="28.0007" x2="575" y2="81.0962" stroke="#FF4747" stroke-width="16.8356" stroke-linecap="round"/>
</svg>
