<svg width="39" height="36" viewBox="0 0 39 36" fill="none" xmlns="http://www.w3.org/2000/svg">
<path d="M37.8509 16.6648C36.6966 13.857 34.5089 12.4335 31.3539 12.4335C31.3539 12.4335 29.2832 12.4335 27.5712 12.4335C28.2107 10.9867 28.9244 8.89257 28.9244 6.36553C28.9244 5.67527 28.8698 4.95381 28.7372 4.22456C28.2419 1.28804 26.2375 -0.275762 23.3906 0.0401187C22.2636 0.168811 21.8736 1.24124 20.9416 3.83848C20.1655 5.99115 19.1048 8.93937 17.5605 11.3065C16.4257 13.0497 14.4095 14.4224 12.7131 15.2687V15.0542H0.22998V33.5975H12.7131V32.5758C14.6786 32.4783 15.7939 32.5368 16.0591 32.6187L18.2937 33.9173L19.9628 34.9585C21.5851 35.8321 28.6787 35.9179 31.7205 35.4655C35.632 34.8962 36.5757 31.6867 36.6147 31.5502C36.9267 30.4855 39.6175 20.9467 37.8509 16.6648ZM34.2593 30.8755C34.2359 30.9457 33.6665 32.7045 31.3656 33.0321C28.0938 33.5195 22.0218 33.2232 21.121 32.7942C21.1288 32.7981 19.6391 31.866 19.6391 31.866L16.8313 30.2905C16.18 30.0722 14.7059 30.0488 12.7131 30.1345V17.9205C14.7254 17.1055 17.8374 15.3584 19.6157 12.6441C21.316 10.0352 22.4352 6.93489 23.2503 4.66523C23.2503 4.66523 23.9717 2.87134 24.1433 2.45797C25.3873 2.46577 26.0737 3.14823 26.3272 4.63013C26.4286 5.2112 26.4676 5.78446 26.4676 6.34213C26.4676 10.0157 24.5801 12.9444 24.5528 12.9795L23.3087 14.8787L31.3539 14.8826C33.5066 14.8826 34.8091 15.721 35.5852 17.6007C36.8058 20.5567 35.0353 28.1886 34.2593 30.8755Z" fill="#DDDDDD"/>
</svg>
