<svg width="21" height="21" viewBox="0 0 21 21" fill="none" xmlns="http://www.w3.org/2000/svg">
<path d="M11.371 12.4501V12.3515C11.371 11.6777 11.6833 11.1682 12.2585 10.7573L12.9323 10.2807C13.902 9.59043 14.5594 8.67009 14.5594 7.37174C14.5594 5.71183 13.2282 4.10122 10.6808 4.10122C8.24843 4.10122 6.91721 5.81044 6.91721 7.58539C6.91721 7.83191 6.93364 8.09487 6.99938 8.32496L9.07017 8.40713C9.02086 8.25922 9.00443 8.07843 9.00443 7.88122C9.00443 6.96087 9.51391 6.02409 10.6808 6.02409C11.7819 6.02409 12.3243 6.74722 12.3243 7.50322C12.3243 7.99626 12.1106 8.44 11.6176 8.80157L10.8287 9.39322C9.89191 10.0999 9.53034 10.9052 9.53034 11.7763C9.53034 12.0228 9.56321 12.2364 9.59608 12.4501H11.371ZM9.21808 14.8331C9.21808 15.5563 9.7933 16.1315 10.5164 16.1315C11.2396 16.1315 11.8312 15.5563 11.8312 14.8331C11.8312 14.11 11.2396 13.5183 10.5164 13.5183C9.7933 13.5183 9.21808 14.11 9.21808 14.8331Z" fill="#404040"/>
<circle cx="10.5" cy="10.5" r="9.58696" stroke="#404040" stroke-width="1.82609"/>
</svg>
