<svg width="21" height="21" viewBox="0 0 21 21" fill="none" xmlns="http://www.w3.org/2000/svg">
<circle cx="10.5" cy="10.5" r="9.58696" fill="#EADB59" stroke="#404040" stroke-width="1.82609"/>
<path d="M11.3709 12.4501V12.3515C11.3709 11.6777 11.6831 11.1682 12.2583 10.7573L12.9322 10.2807C13.9018 9.59043 14.5592 8.67009 14.5592 7.37174C14.5592 5.71183 13.228 4.10122 10.6806 4.10122C8.24824 4.10122 6.91703 5.81044 6.91703 7.58539C6.91703 7.83191 6.93346 8.09487 6.9992 8.32496L9.06998 8.40713C9.02068 8.25922 9.00424 8.07843 9.00424 7.88122C9.00424 6.96087 9.51372 6.02409 10.6806 6.02409C11.7817 6.02409 12.3241 6.74722 12.3241 7.50322C12.3241 7.99626 12.1104 8.44 11.6174 8.80157L10.8285 9.39322C9.89172 10.0999 9.53016 10.9052 9.53016 11.7763C9.53016 12.0228 9.56303 12.2364 9.5959 12.4501H11.3709ZM9.2179 14.8331C9.2179 15.5563 9.79311 16.1315 10.5162 16.1315C11.2394 16.1315 11.831 15.5563 11.831 14.8331C11.831 14.11 11.2394 13.5183 10.5162 13.5183C9.79311 13.5183 9.2179 14.11 9.2179 14.8331Z" fill="#404040"/>
</svg>
