<svg width="146" height="100" viewBox="0 0 146 100" fill="none" xmlns="http://www.w3.org/2000/svg">
<rect x="0.25" y="0.25" width="145.5" height="99.5" fill="#1C1C1C" stroke="#A7A7A7" stroke-width="0.5"/>
<circle cx="117.392" cy="68.3924" r="4.24242" transform="rotate(90 117.392 68.3924)" stroke="white" stroke-width="0.3"/>
<circle cx="117.566" cy="78.3682" r="3.30118" transform="rotate(90 117.566 78.3682)" stroke="white" stroke-width="0.3"/>
<circle cx="117.653" cy="86.1485" r="2.04621" transform="rotate(90 117.653 86.1485)" stroke="white" stroke-width="0.3"/>
<circle cx="117.652" cy="91.7336" r="1.10498" transform="rotate(90 117.652 91.7336)" stroke="white" stroke-width="0.3"/>
<path d="M12.4023 43.5742L12.5469 42.1562H14.0039V42.4902H12.8535L12.7676 43.2656C12.9069 43.1836 13.0651 43.1426 13.2422 43.1426C13.5013 43.1426 13.707 43.2285 13.8594 43.4004C14.0117 43.571 14.0879 43.8021 14.0879 44.0938C14.0879 44.3867 14.0085 44.6178 13.8496 44.7871C13.6921 44.9551 13.4714 45.0391 13.1875 45.0391C12.9362 45.0391 12.7311 44.9694 12.5723 44.8301C12.4134 44.6908 12.3229 44.498 12.3008 44.252H12.6426C12.6647 44.4147 12.7227 44.5378 12.8164 44.6211C12.9102 44.7031 13.0339 44.7441 13.1875 44.7441C13.3555 44.7441 13.487 44.6868 13.582 44.5723C13.6784 44.4577 13.7266 44.2995 13.7266 44.0977C13.7266 43.9076 13.6745 43.7552 13.5703 43.6406C13.4674 43.5247 13.3301 43.4668 13.1582 43.4668C13.0007 43.4668 12.877 43.5013 12.7871 43.5703L12.6914 43.6484L12.4023 43.5742ZM16.2656 43.7871C16.2656 44.2103 16.1934 44.5247 16.0488 44.7305C15.9043 44.9362 15.6784 45.0391 15.3711 45.0391C15.0677 45.0391 14.8431 44.9388 14.6973 44.7383C14.5514 44.5365 14.4759 44.2357 14.4707 43.8359V43.3535C14.4707 42.9355 14.543 42.625 14.6875 42.4219C14.832 42.2188 15.0586 42.1172 15.3672 42.1172C15.6732 42.1172 15.8984 42.2155 16.043 42.4121C16.1875 42.6074 16.2617 42.9095 16.2656 43.3184V43.7871ZM15.9043 43.293C15.9043 42.987 15.8613 42.7643 15.7754 42.625C15.6895 42.4844 15.5534 42.4141 15.3672 42.4141C15.1823 42.4141 15.0475 42.4837 14.9629 42.623C14.8783 42.7624 14.8346 42.9766 14.832 43.2656V43.8438C14.832 44.151 14.8763 44.3783 14.9648 44.5254C15.0547 44.6712 15.1901 44.7441 15.3711 44.7441C15.5495 44.7441 15.6816 44.6751 15.7676 44.5371C15.8548 44.3991 15.9004 44.1816 15.9043 43.8848V43.293Z" fill="white"/>
<path d="M58.4023 88.5742L58.5469 87.1562H60.0039V87.4902H58.8535L58.7676 88.2656C58.9069 88.1836 59.0651 88.1426 59.2422 88.1426C59.5013 88.1426 59.707 88.2285 59.8594 88.4004C60.0117 88.571 60.0879 88.8021 60.0879 89.0938C60.0879 89.3867 60.0085 89.6178 59.8496 89.7871C59.6921 89.9551 59.4714 90.0391 59.1875 90.0391C58.9362 90.0391 58.7311 89.9694 58.5723 89.8301C58.4134 89.6908 58.3229 89.498 58.3008 89.252H58.6426C58.6647 89.4147 58.7227 89.5378 58.8164 89.6211C58.9102 89.7031 59.0339 89.7441 59.1875 89.7441C59.3555 89.7441 59.487 89.6868 59.582 89.5723C59.6784 89.4577 59.7266 89.2995 59.7266 89.0977C59.7266 88.9076 59.6745 88.7552 59.5703 88.6406C59.4674 88.5247 59.3301 88.4668 59.1582 88.4668C59.0007 88.4668 58.877 88.5013 58.7871 88.5703L58.6914 88.6484L58.4023 88.5742ZM62.2656 88.7871C62.2656 89.2103 62.1934 89.5247 62.0488 89.7305C61.9043 89.9362 61.6784 90.0391 61.3711 90.0391C61.0677 90.0391 60.8431 89.9388 60.6973 89.7383C60.5514 89.5365 60.4759 89.2357 60.4707 88.8359V88.3535C60.4707 87.9355 60.543 87.625 60.6875 87.4219C60.832 87.2188 61.0586 87.1172 61.3672 87.1172C61.6732 87.1172 61.8984 87.2155 62.043 87.4121C62.1875 87.6074 62.2617 87.9095 62.2656 88.3184V88.7871ZM61.9043 88.293C61.9043 87.987 61.8613 87.7643 61.7754 87.625C61.6895 87.4844 61.5534 87.4141 61.3672 87.4141C61.1823 87.4141 61.0475 87.4837 60.9629 87.623C60.8783 87.7624 60.8346 87.9766 60.832 88.2656V88.8438C60.832 89.151 60.8763 89.3783 60.9648 89.5254C61.0547 89.6712 61.1901 89.7441 61.3711 89.7441C61.5495 89.7441 61.6816 89.6751 61.7676 89.5371C61.8548 89.3991 61.9004 89.1816 61.9043 88.8848V88.293Z" fill="white"/>
<line x1="60.5" y1="4" x2="60.5" y2="84" stroke="#E14148"/>
<line x1="19" y1="44.5" x2="99" y2="44.5" stroke="#7EBC85"/>
<path d="M9 55.6826H5.44531V54.5889C5.44531 54.2764 5.51611 53.9972 5.65771 53.7515C5.79769 53.5041 5.99788 53.3112 6.2583 53.1729C6.51709 53.0345 6.81169 52.9653 7.14209 52.9653H7.30566C7.63607 52.9653 7.92985 53.0337 8.18701 53.1704C8.44417 53.3055 8.64355 53.4967 8.78516 53.7441C8.92676 53.9915 8.99837 54.2707 9 54.5815V55.6826ZM6.03857 54.9502H8.41162V54.5962C8.41162 54.3097 8.31803 54.0908 8.13086 53.9395C7.94368 53.7881 7.67594 53.7108 7.32764 53.7075H7.13965C6.77832 53.7075 6.50488 53.7824 6.31934 53.9321C6.13216 54.0819 6.03857 54.3008 6.03857 54.5889V54.9502ZM9 50.9463C8.93652 50.9788 8.85758 51.0024 8.76318 51.0171C8.95361 51.188 9.04883 51.4102 9.04883 51.6836C9.04883 51.9424 8.97396 52.1572 8.82422 52.3281C8.67448 52.4974 8.48568 52.582 8.25781 52.582C7.97786 52.582 7.76302 52.4787 7.61328 52.272C7.46354 52.0636 7.38786 51.7633 7.38623 51.3711V51.0464H7.23486C7.11279 51.0464 7.01514 51.0781 6.94189 51.1416C6.86865 51.2035 6.83203 51.3019 6.83203 51.437C6.83203 51.5558 6.86051 51.6494 6.91748 51.7178C6.97445 51.7845 7.05257 51.8179 7.15186 51.8179V52.5234C6.99886 52.5234 6.85726 52.4762 6.72705 52.3818C6.59684 52.2874 6.49512 52.154 6.42188 51.9814C6.34701 51.8089 6.30957 51.6152 6.30957 51.4004C6.30957 51.0749 6.39176 50.8169 6.55615 50.6265C6.71891 50.4344 6.9484 50.3384 7.24463 50.3384H8.38965C8.6403 50.3368 8.82992 50.3018 8.9585 50.2334H9V50.9463ZM8.50928 51.5298C8.50928 51.4256 8.48649 51.3296 8.44092 51.2417C8.39372 51.1538 8.33105 51.0887 8.25293 51.0464H7.79883V51.3101C7.79883 51.6632 7.9209 51.8512 8.16504 51.874L8.20654 51.8765C8.29443 51.8765 8.36686 51.8455 8.42383 51.7837C8.48079 51.7218 8.50928 51.6372 8.50928 51.5298ZM6.3584 49.147L6.66357 49.125C6.42757 48.9362 6.30957 48.6831 6.30957 48.3657C6.30957 48.0858 6.39176 47.8774 6.55615 47.7407C6.72054 47.604 6.96631 47.534 7.29346 47.5308H9V48.2363H7.31055C7.16081 48.2363 7.05257 48.2689 6.98584 48.334C6.91748 48.3991 6.8833 48.5073 6.8833 48.6587C6.8833 48.8573 6.96794 49.0062 7.13721 49.1055H9V49.811H6.3584V49.147ZM8.47998 45.895C8.47998 45.7648 8.44417 45.659 8.37256 45.5776C8.30094 45.4963 8.20573 45.4539 8.08691 45.4507V44.7891C8.26595 44.7907 8.43034 44.8395 8.58008 44.9355C8.72819 45.0316 8.84375 45.1634 8.92676 45.3311C9.00814 45.4971 9.04883 45.681 9.04883 45.8828C9.04883 46.2604 8.9292 46.5583 8.68994 46.7764C8.44906 46.9945 8.11702 47.1035 7.69385 47.1035H7.64746C7.24056 47.1035 6.91585 46.9953 6.67334 46.7788C6.43083 46.5623 6.30957 46.2653 6.30957 45.8877C6.30957 45.5573 6.40397 45.2928 6.59277 45.0942C6.77995 44.894 7.02979 44.7923 7.34229 44.7891L7.34229 45.4507C7.20557 45.4539 7.09489 45.4963 7.01025 45.5776C6.92399 45.659 6.88086 45.7664 6.88086 45.8999C6.88086 46.0643 6.94108 46.1888 7.06152 46.2734C7.18034 46.3564 7.37402 46.3979 7.64258 46.3979H7.71582C7.98763 46.3979 8.18294 46.3564 8.30176 46.2734C8.42057 46.1904 8.47998 46.0643 8.47998 45.895ZM9.04883 43.1704C9.04883 43.5578 8.93001 43.8735 8.69238 44.1177C8.45475 44.3602 8.13818 44.4814 7.74268 44.4814H7.67432C7.40902 44.4814 7.1722 44.4302 6.96387 44.3276C6.75391 44.2251 6.59277 44.0802 6.48047 43.8931C6.36654 43.7043 6.30957 43.4894 6.30957 43.2485C6.30957 42.8872 6.4235 42.6032 6.65137 42.3965C6.87923 42.1882 7.20231 42.084 7.62061 42.084H7.90869V43.7661C8.08122 43.7433 8.21956 43.675 8.32373 43.561C8.4279 43.4455 8.47998 43.2998 8.47998 43.124C8.47998 42.8522 8.38151 42.6398 8.18457 42.4868L8.57275 42.1401C8.72249 42.2459 8.83968 42.3892 8.92432 42.5698C9.00732 42.7505 9.04883 42.9507 9.04883 43.1704ZM6.88086 43.251C6.88086 43.391 6.92806 43.5049 7.02246 43.5928C7.11686 43.679 7.25195 43.7344 7.42773 43.7588V42.7773H7.37158C7.21533 42.7806 7.09489 42.8229 7.01025 42.9043C6.92399 42.9857 6.88086 43.1012 6.88086 43.251ZM9 40.1504C8.93652 40.1829 8.85758 40.2065 8.76318 40.2212C8.95361 40.3921 9.04883 40.6143 9.04883 40.8877C9.04883 41.1465 8.97396 41.3613 8.82422 41.5322C8.67448 41.7015 8.48568 41.7861 8.25781 41.7861C7.97786 41.7861 7.76302 41.6828 7.61328 41.4761C7.46354 41.2677 7.38786 40.9674 7.38623 40.5752V40.2505H7.23486C7.11279 40.2505 7.01514 40.2822 6.94189 40.3457C6.86865 40.4076 6.83203 40.506 6.83203 40.6411C6.83203 40.7599 6.86051 40.8535 6.91748 40.9219C6.97445 40.9886 7.05257 41.022 7.15186 41.022V41.7275C6.99886 41.7275 6.85726 41.6803 6.72705 41.5859C6.59684 41.4915 6.49512 41.3581 6.42188 41.1855C6.34701 41.013 6.30957 40.8193 6.30957 40.6045C6.30957 40.279 6.39176 40.021 6.55615 39.8306C6.71891 39.6385 6.9484 39.5425 7.24463 39.5425H8.38965C8.6403 39.5409 8.82992 39.5059 8.9585 39.4375H9V40.1504ZM8.50928 40.7339C8.50928 40.6297 8.48649 40.5337 8.44092 40.4458C8.39372 40.3579 8.33105 40.2928 8.25293 40.2505H7.79883V40.5142C7.79883 40.8674 7.9209 41.0553 8.16504 41.0781L8.20654 41.0806C8.29443 41.0806 8.36686 41.0496 8.42383 40.9878C8.48079 40.9259 8.50928 40.8413 8.50928 40.7339ZM7.70361 36.6201C8.12679 36.6201 8.45719 36.7104 8.69482 36.8911C8.93083 37.0718 9.04883 37.3241 9.04883 37.6479C9.04883 37.9344 8.93896 38.1631 8.71924 38.334L9 38.3657V39.0005H5.25V38.2949H6.59521C6.40479 38.1322 6.30957 37.9181 6.30957 37.6528C6.30957 37.3306 6.42839 37.0783 6.66602 36.896C6.90202 36.7121 7.23486 36.6201 7.66455 36.6201H7.70361ZM7.65234 37.3257C7.38542 37.3257 7.19092 37.368 7.06885 37.4526C6.94515 37.5373 6.8833 37.6634 6.8833 37.8311C6.8833 38.0557 6.97526 38.2103 7.15918 38.2949H8.20166C8.38721 38.2087 8.47998 38.0524 8.47998 37.8262C8.47998 37.5983 8.36768 37.4486 8.14307 37.377C8.03564 37.3428 7.87207 37.3257 7.65234 37.3257ZM9 35.4385V36.1465H6.3584V35.4385H9ZM5.6748 36.188C5.56901 36.188 5.48193 36.153 5.41357 36.083C5.34521 36.0114 5.31104 35.9146 5.31104 35.7925C5.31104 35.672 5.34521 35.576 5.41357 35.5044C5.48193 35.4328 5.56901 35.397 5.6748 35.397C5.78223 35.397 5.87012 35.4336 5.93848 35.5068C6.00684 35.5785 6.04102 35.6737 6.04102 35.7925C6.04102 35.9113 6.00684 36.0073 5.93848 36.0806C5.87012 36.1522 5.78223 36.188 5.6748 36.188ZM9 34.1104L9 34.8184H5.25V34.1104H9ZM9 32.7822V33.4902H6.3584V32.7822H9ZM5.6748 33.5317C5.56901 33.5317 5.48193 33.4967 5.41357 33.4268C5.34521 33.3551 5.31104 33.2583 5.31104 33.1362C5.31104 33.0158 5.34521 32.9198 5.41357 32.8481C5.48193 32.7765 5.56901 32.7407 5.6748 32.7407C5.78223 32.7407 5.87012 32.7773 5.93848 32.8506C6.00684 32.9222 6.04102 33.0174 6.04102 33.1362C6.04102 33.255 6.00684 33.3511 5.93848 33.4243C5.87012 33.4959 5.78223 33.5317 5.6748 33.5317ZM5.70898 31.354H6.3584V30.9023H6.87598V31.354H8.19434C8.29199 31.354 8.36198 31.3353 8.4043 31.2979C8.44661 31.2604 8.46777 31.1888 8.46777 31.083C8.46777 31.0049 8.46208 30.9357 8.45068 30.8755H8.98535C9.02767 31.0138 9.04883 31.1562 9.04883 31.3027C9.04883 31.7975 8.79899 32.0498 8.29932 32.0596H6.87598V32.4453H6.3584V32.0596H5.70898V31.354ZM8.00146 29.5229L6.3584 29.0347V28.2778L9.41016 29.3398L9.54932 29.3984C9.89437 29.5563 10.0669 29.8167 10.0669 30.1797C10.0669 30.2822 10.0514 30.3864 10.0205 30.4922H9.48584L9.48828 30.3848C9.48828 30.2513 9.46794 30.152 9.42725 30.0869C9.38656 30.0202 9.31901 29.9681 9.22461 29.9307L9.00732 29.8477L6.3584 30.7729V30.0137L8.00146 29.5229Z" fill="#F9F9F9"/>
<path d="M108.21 9H107.478V7.47656H106.05V9H105.317V5.44531H106.05V6.88574H107.478V5.44531H108.21V9ZM110.337 9C110.304 8.93652 110.281 8.85758 110.266 8.76318C110.095 8.95361 109.873 9.04883 109.6 9.04883C109.341 9.04883 109.126 8.97396 108.955 8.82422C108.786 8.67448 108.701 8.48568 108.701 8.25781C108.701 7.97786 108.805 7.76302 109.011 7.61328C109.22 7.46354 109.52 7.38786 109.912 7.38623H110.237V7.23486C110.237 7.11279 110.205 7.01514 110.142 6.94189C110.08 6.86865 109.981 6.83203 109.846 6.83203C109.727 6.83203 109.634 6.86051 109.565 6.91748C109.499 6.97445 109.465 7.05257 109.465 7.15186H108.76C108.76 6.99886 108.807 6.85726 108.901 6.72705C108.996 6.59684 109.129 6.49512 109.302 6.42188C109.474 6.34701 109.668 6.30957 109.883 6.30957C110.208 6.30957 110.466 6.39176 110.657 6.55615C110.849 6.71891 110.945 6.9484 110.945 7.24463V8.38965C110.946 8.6403 110.981 8.82992 111.05 8.9585V9H110.337ZM109.753 8.50928C109.858 8.50928 109.954 8.48649 110.042 8.44092C110.129 8.39372 110.194 8.33105 110.237 8.25293V7.79883H109.973C109.62 7.79883 109.432 7.9209 109.409 8.16504L109.407 8.20654C109.407 8.29443 109.438 8.36686 109.5 8.42383C109.561 8.48079 109.646 8.50928 109.753 8.50928ZM113.865 7.70361C113.865 8.11051 113.772 8.43685 113.586 8.68262C113.403 8.92676 113.153 9.04883 112.839 9.04883C112.572 9.04883 112.357 8.95605 112.192 8.77051V10.0156H111.487V6.3584H112.141L112.166 6.61719C112.336 6.41211 112.559 6.30957 112.834 6.30957C113.16 6.30957 113.413 6.43001 113.594 6.6709C113.774 6.91178 113.865 7.24382 113.865 7.66699V7.70361ZM113.159 7.65234C113.159 7.40658 113.115 7.21696 113.027 7.0835C112.941 6.95003 112.815 6.8833 112.649 6.8833C112.428 6.8833 112.275 6.96794 112.192 7.13721V8.21875C112.279 8.3929 112.432 8.47998 112.654 8.47998C112.991 8.47998 113.159 8.2041 113.159 7.65234ZM116.682 7.70361C116.682 8.11051 116.589 8.43685 116.404 8.68262C116.22 8.92676 115.971 9.04883 115.657 9.04883C115.39 9.04883 115.174 8.95605 115.01 8.77051V10.0156H114.304V6.3584H114.958L114.983 6.61719C115.154 6.41211 115.377 6.30957 115.652 6.30957C115.977 6.30957 116.23 6.43001 116.411 6.6709C116.592 6.91178 116.682 7.24382 116.682 7.66699V7.70361ZM115.977 7.65234C115.977 7.40658 115.933 7.21696 115.845 7.0835C115.758 6.95003 115.632 6.8833 115.466 6.8833C115.245 6.8833 115.093 6.96794 115.01 7.13721V8.21875C115.096 8.3929 115.25 8.47998 115.471 8.47998C115.808 8.47998 115.977 8.2041 115.977 7.65234ZM117.866 9H117.158V6.3584H117.866V9ZM117.117 5.6748C117.117 5.56901 117.152 5.48193 117.222 5.41357C117.293 5.34521 117.39 5.31104 117.512 5.31104C117.633 5.31104 117.729 5.34521 117.8 5.41357C117.872 5.48193 117.908 5.56901 117.908 5.6748C117.908 5.78223 117.871 5.87012 117.798 5.93848C117.726 6.00684 117.631 6.04102 117.512 6.04102C117.393 6.04102 117.297 6.00684 117.224 5.93848C117.153 5.87012 117.117 5.78223 117.117 5.6748ZM119.099 6.3584L119.121 6.66357C119.31 6.42757 119.563 6.30957 119.88 6.30957C120.16 6.30957 120.369 6.39176 120.505 6.55615C120.642 6.72054 120.712 6.96631 120.715 7.29346V9H120.01V7.31055C120.01 7.16081 119.977 7.05257 119.912 6.98584C119.847 6.91748 119.739 6.8833 119.587 6.8833C119.389 6.8833 119.24 6.96794 119.141 7.13721V9H118.435V6.3584H119.099ZM122.468 9.04883C122.081 9.04883 121.765 8.93001 121.521 8.69238C121.278 8.45475 121.157 8.13818 121.157 7.74268V7.67432C121.157 7.40902 121.208 7.1722 121.311 6.96387C121.414 6.75391 121.558 6.59277 121.746 6.48047C121.934 6.36654 122.149 6.30957 122.39 6.30957C122.751 6.30957 123.035 6.4235 123.242 6.65137C123.451 6.87923 123.555 7.20231 123.555 7.62061V7.90869H121.873C121.895 8.08122 121.964 8.21956 122.078 8.32373C122.193 8.4279 122.339 8.47998 122.515 8.47998C122.786 8.47998 122.999 8.38151 123.152 8.18457L123.499 8.57275C123.393 8.72249 123.25 8.83968 123.069 8.92432C122.888 9.00732 122.688 9.04883 122.468 9.04883ZM122.388 6.88086C122.248 6.88086 122.134 6.92806 122.046 7.02246C121.96 7.11686 121.904 7.25195 121.88 7.42773H122.861V7.37158C122.858 7.21533 122.816 7.09489 122.734 7.01025C122.653 6.92399 122.537 6.88086 122.388 6.88086ZM125.388 8.27002C125.388 8.18376 125.345 8.11621 125.259 8.06738C125.174 8.01693 125.037 7.97217 124.849 7.93311C124.22 7.80127 123.906 7.53434 123.906 7.13232C123.906 6.89795 124.003 6.70264 124.197 6.54639C124.392 6.38851 124.647 6.30957 124.961 6.30957C125.296 6.30957 125.564 6.38851 125.764 6.54639C125.966 6.70426 126.067 6.90934 126.067 7.16162H125.361C125.361 7.06071 125.329 6.9777 125.264 6.9126C125.199 6.84587 125.097 6.8125 124.958 6.8125C124.84 6.8125 124.748 6.83936 124.683 6.89307C124.618 6.94678 124.585 7.01514 124.585 7.09814C124.585 7.17627 124.622 7.23975 124.695 7.28857C124.77 7.33577 124.895 7.37728 125.071 7.41309C125.247 7.44727 125.395 7.48633 125.515 7.53027C125.888 7.66699 126.074 7.90381 126.074 8.24072C126.074 8.48161 125.971 8.67692 125.764 8.82666C125.557 8.97477 125.291 9.04883 124.963 9.04883C124.742 9.04883 124.545 9.00977 124.373 8.93164C124.202 8.85189 124.067 8.74365 123.97 8.60693C123.872 8.46859 123.823 8.31966 123.823 8.16016H124.492C124.499 8.28548 124.545 8.38151 124.631 8.44824C124.718 8.51497 124.833 8.54834 124.978 8.54834C125.113 8.54834 125.215 8.52311 125.283 8.47266C125.353 8.42057 125.388 8.35303 125.388 8.27002ZM127.961 8.27002C127.961 8.18376 127.918 8.11621 127.832 8.06738C127.747 8.01693 127.611 7.97217 127.422 7.93311C126.794 7.80127 126.479 7.53434 126.479 7.13232C126.479 6.89795 126.576 6.70264 126.77 6.54639C126.965 6.38851 127.22 6.30957 127.534 6.30957C127.869 6.30957 128.137 6.38851 128.337 6.54639C128.539 6.70426 128.64 6.90934 128.64 7.16162H127.935C127.935 7.06071 127.902 6.9777 127.837 6.9126C127.772 6.84587 127.67 6.8125 127.532 6.8125C127.413 6.8125 127.321 6.83936 127.256 6.89307C127.191 6.94678 127.158 7.01514 127.158 7.09814C127.158 7.17627 127.195 7.23975 127.268 7.28857C127.343 7.33577 127.468 7.37728 127.644 7.41309C127.82 7.44727 127.968 7.48633 128.088 7.53027C128.461 7.66699 128.647 7.90381 128.647 8.24072C128.647 8.48161 128.544 8.67692 128.337 8.82666C128.131 8.97477 127.864 9.04883 127.537 9.04883C127.315 9.04883 127.118 9.00977 126.946 8.93164C126.775 8.85189 126.641 8.74365 126.543 8.60693C126.445 8.46859 126.396 8.31966 126.396 8.16016H127.065C127.072 8.28548 127.118 8.38151 127.205 8.44824C127.291 8.51497 127.406 8.54834 127.551 8.54834C127.686 8.54834 127.788 8.52311 127.856 8.47266C127.926 8.42057 127.961 8.35303 127.961 8.27002Z" fill="#F9F9F9"/>
<path d="M106.05 56.7476V58H105.317V54.4453H106.704C106.971 54.4453 107.205 54.4941 107.407 54.5918C107.611 54.6895 107.767 54.8286 107.876 55.0093C107.985 55.1883 108.04 55.3926 108.04 55.6221C108.04 55.9704 107.92 56.2454 107.681 56.4473C107.443 56.6475 107.113 56.7476 106.692 56.7476H106.05ZM106.05 56.1543H106.704C106.898 56.1543 107.045 56.1087 107.146 56.0176C107.249 55.9264 107.3 55.7962 107.3 55.627C107.3 55.4528 107.249 55.312 107.146 55.2046C107.043 55.0972 106.902 55.0418 106.721 55.0386H106.05V56.1543ZM108.354 56.6548C108.354 56.3927 108.405 56.1592 108.506 55.9541C108.607 55.749 108.752 55.5903 108.94 55.478C109.131 55.3657 109.351 55.3096 109.602 55.3096C109.958 55.3096 110.249 55.4186 110.474 55.6367C110.7 55.8548 110.826 56.151 110.852 56.5254L110.857 56.7061C110.857 57.1113 110.744 57.4368 110.518 57.6826C110.291 57.9268 109.988 58.0488 109.607 58.0488C109.226 58.0488 108.922 57.9268 108.694 57.6826C108.468 57.4385 108.354 57.1064 108.354 56.6865V56.6548ZM109.06 56.7061C109.06 56.9567 109.107 57.1488 109.202 57.2822C109.296 57.4141 109.431 57.48 109.607 57.48C109.778 57.48 109.911 57.4149 110.007 57.2847C110.103 57.1528 110.151 56.9429 110.151 56.6548C110.151 56.409 110.103 56.2186 110.007 56.0835C109.911 55.9484 109.776 55.8809 109.602 55.8809C109.43 55.8809 109.296 55.9484 109.202 56.0835C109.107 56.217 109.06 56.4245 109.06 56.7061ZM113.669 56.7036C113.669 57.1105 113.577 57.4368 113.391 57.6826C113.207 57.9268 112.958 58.0488 112.644 58.0488C112.377 58.0488 112.161 57.9561 111.997 57.7705V59.0156H111.292V55.3584H111.946L111.97 55.6172C112.141 55.4121 112.364 55.3096 112.639 55.3096C112.965 55.3096 113.218 55.43 113.398 55.6709C113.579 55.9118 113.669 56.2438 113.669 56.667V56.7036ZM112.964 56.6523C112.964 56.4066 112.92 56.217 112.832 56.0835C112.746 55.95 112.62 55.8833 112.454 55.8833C112.232 55.8833 112.08 55.9679 111.997 56.1372V57.2188C112.083 57.3929 112.237 57.48 112.458 57.48C112.795 57.48 112.964 57.2041 112.964 56.6523ZM115.691 57.7314C115.517 57.943 115.276 58.0488 114.968 58.0488C114.685 58.0488 114.469 57.9674 114.319 57.8047C114.171 57.6419 114.095 57.4035 114.092 57.0894V55.3584H114.797V57.0649C114.797 57.34 114.923 57.4775 115.173 57.4775C115.413 57.4775 115.577 57.3945 115.667 57.2285V55.3584H116.375V58H115.71L115.691 57.7314ZM117.651 58H116.943V54.25H117.651V58ZM119.766 58C119.733 57.9365 119.709 57.8576 119.695 57.7632C119.524 57.9536 119.302 58.0488 119.028 58.0488C118.77 58.0488 118.555 57.974 118.384 57.8242C118.215 57.6745 118.13 57.4857 118.13 57.2578C118.13 56.9779 118.233 56.763 118.44 56.6133C118.648 56.4635 118.949 56.3879 119.341 56.3862H119.666V56.2349C119.666 56.1128 119.634 56.0151 119.57 55.9419C119.508 55.8687 119.41 55.832 119.275 55.832C119.156 55.832 119.062 55.8605 118.994 55.9175C118.927 55.9744 118.894 56.0526 118.894 56.1519H118.188C118.188 55.9989 118.236 55.8573 118.33 55.7271C118.424 55.5968 118.558 55.4951 118.73 55.4219C118.903 55.347 119.097 55.3096 119.312 55.3096C119.637 55.3096 119.895 55.3918 120.085 55.5562C120.278 55.7189 120.374 55.9484 120.374 56.2446V57.3896C120.375 57.6403 120.41 57.8299 120.479 57.9585V58H119.766ZM119.182 57.5093C119.286 57.5093 119.382 57.4865 119.47 57.4409C119.558 57.3937 119.623 57.3311 119.666 57.2529V56.7988H119.402C119.049 56.7988 118.861 56.9209 118.838 57.165L118.835 57.2065C118.835 57.2944 118.866 57.3669 118.928 57.4238C118.99 57.4808 119.075 57.5093 119.182 57.5093ZM122.4 56.02C122.304 56.007 122.219 56.0005 122.146 56.0005C121.879 56.0005 121.704 56.0908 121.621 56.2715V58H120.916V55.3584H121.582L121.602 55.6733C121.743 55.4308 121.939 55.3096 122.19 55.3096C122.268 55.3096 122.341 55.3201 122.41 55.3413L122.4 56.02ZM123.486 58H122.778V55.3584H123.486V58ZM122.737 54.6748C122.737 54.569 122.772 54.4819 122.842 54.4136C122.913 54.3452 123.01 54.311 123.132 54.311C123.253 54.311 123.349 54.3452 123.42 54.4136C123.492 54.4819 123.528 54.569 123.528 54.6748C123.528 54.7822 123.491 54.8701 123.418 54.9385C123.346 55.0068 123.251 55.041 123.132 55.041C123.014 55.041 122.917 55.0068 122.844 54.9385C122.773 54.8701 122.737 54.7822 122.737 54.6748ZM124.915 54.709V55.3584H125.366V55.876H124.915V57.1943C124.915 57.292 124.933 57.362 124.971 57.4043C125.008 57.4466 125.08 57.4678 125.186 57.4678C125.264 57.4678 125.333 57.4621 125.393 57.4507V57.9854C125.255 58.0277 125.112 58.0488 124.966 58.0488C124.471 58.0488 124.219 57.799 124.209 57.2993V55.876H123.823V55.3584H124.209V54.709H124.915ZM126.746 57.0015L127.234 55.3584H127.991L126.929 58.4102L126.87 58.5493C126.712 58.8944 126.452 59.0669 126.089 59.0669C125.986 59.0669 125.882 59.0514 125.776 59.0205V58.4858L125.884 58.4883C126.017 58.4883 126.117 58.4679 126.182 58.4272C126.248 58.3866 126.3 58.319 126.338 58.2246L126.421 58.0073L125.496 55.3584H126.255L126.746 57.0015Z" fill="#F9F9F9"/>
<path d="M54.4561 94.4595H53.0498V95.4116H54.7002V96H52.3174V92.4453H54.6953V93.0386H53.0498V93.8857H54.4561V94.4595ZM55.7329 93.3584L55.7549 93.6636C55.9437 93.4276 56.1968 93.3096 56.5142 93.3096C56.7941 93.3096 57.0024 93.3918 57.1392 93.5562C57.2759 93.7205 57.3459 93.9663 57.3491 94.2935V96H56.6436V94.3105C56.6436 94.1608 56.611 94.0526 56.5459 93.9858C56.4808 93.9175 56.3726 93.8833 56.2212 93.8833C56.0226 93.8833 55.8737 93.9679 55.7744 94.1372V96H55.0688V93.3584H55.7329ZM59.1021 96.0488C58.7147 96.0488 58.3989 95.93 58.1548 95.6924C57.9123 95.4548 57.791 95.1382 57.791 94.7427V94.6743C57.791 94.409 57.8423 94.1722 57.9448 93.9639C58.0474 93.7539 58.1922 93.5928 58.3794 93.4805C58.5682 93.3665 58.783 93.3096 59.0239 93.3096C59.3853 93.3096 59.6693 93.4235 59.876 93.6514C60.0843 93.8792 60.1885 94.2023 60.1885 94.6206V94.9087H58.5063C58.5291 95.0812 58.5975 95.2196 58.7114 95.3237C58.827 95.4279 58.9727 95.48 59.1484 95.48C59.4202 95.48 59.6326 95.3815 59.7856 95.1846L60.1323 95.5728C60.0265 95.7225 59.8833 95.8397 59.7026 95.9243C59.522 96.0073 59.3218 96.0488 59.1021 96.0488ZM59.0215 93.8809C58.8815 93.8809 58.7676 93.9281 58.6797 94.0225C58.5934 94.1169 58.5381 94.252 58.5137 94.4277H59.4951V94.3716C59.4919 94.2153 59.4495 94.0949 59.3682 94.0103C59.2868 93.924 59.1712 93.8809 59.0215 93.8809ZM62.0757 94.02C61.9797 94.007 61.895 94.0005 61.8218 94.0005C61.5549 94.0005 61.3799 94.0908 61.2969 94.2715V96H60.5913V93.3584H61.2578L61.2773 93.6733C61.4189 93.4308 61.6151 93.3096 61.8657 93.3096C61.9438 93.3096 62.0171 93.3201 62.0854 93.3413L62.0757 94.02ZM62.2661 94.6597C62.2661 94.2544 62.3621 93.9281 62.5542 93.6807C62.7479 93.4333 63.0083 93.3096 63.3354 93.3096C63.6252 93.3096 63.8506 93.4089 64.0117 93.6074L64.041 93.3584H64.6807V95.9121C64.6807 96.1432 64.6278 96.3442 64.522 96.5151C64.4178 96.686 64.2705 96.8162 64.0801 96.9058C63.8896 96.9953 63.6667 97.04 63.4111 97.04C63.2174 97.04 63.0286 97.001 62.8447 96.9229C62.6608 96.8464 62.5216 96.7471 62.4272 96.625L62.7397 96.1953C62.9155 96.3923 63.1287 96.4907 63.3794 96.4907C63.5666 96.4907 63.7122 96.4403 63.8164 96.3394C63.9206 96.2401 63.9727 96.0985 63.9727 95.9146V95.7729C63.8099 95.9569 63.5959 96.0488 63.3306 96.0488C63.0132 96.0488 62.756 95.9251 62.5591 95.6777C62.3638 95.4287 62.2661 95.0991 62.2661 94.689V94.6597ZM62.9717 94.7109C62.9717 94.9502 63.0197 95.1382 63.1157 95.2749C63.2118 95.41 63.3436 95.4775 63.5112 95.4775C63.7261 95.4775 63.8799 95.397 63.9727 95.2358V94.125C63.8783 93.9639 63.7261 93.8833 63.5161 93.8833C63.3468 93.8833 63.2134 93.9525 63.1157 94.0908C63.0197 94.2292 62.9717 94.4359 62.9717 94.7109ZM66.2114 95.0015L66.6997 93.3584H67.4565L66.3945 96.4102L66.3359 96.5493C66.1781 96.8944 65.9176 97.0669 65.5547 97.0669C65.4521 97.0669 65.348 97.0514 65.2422 97.0205V96.4858L65.3496 96.4883C65.4831 96.4883 65.5824 96.4679 65.6475 96.4272C65.7142 96.3866 65.7663 96.319 65.8037 96.2246L65.8867 96.0073L64.9614 93.3584H65.7207L66.2114 95.0015Z" fill="#F9F9F9"/>
<rect x="113.25" y="13.25" width="7.5" height="31.5" fill="url(#paint0_linear)"/>
<rect x="113.25" y="13.25" width="7.5" height="31.5" fill="url(#paint1_linear)"/>
<rect x="113.25" y="13.25" width="7.5" height="31.5" stroke="white" stroke-width="0.5"/>
<path d="M123.814 42.1562L124.744 44.4766L125.674 42.1562H126.16V45H125.785V43.8926L125.82 42.6973L124.887 45H124.6L123.668 42.7031L123.705 43.8926V45H123.33V42.1562H123.814ZM127.158 45H126.797V42.8867H127.158V45ZM126.768 42.3262C126.768 42.2676 126.785 42.2181 126.82 42.1777C126.857 42.1374 126.91 42.1172 126.98 42.1172C127.051 42.1172 127.104 42.1374 127.141 42.1777C127.177 42.2181 127.195 42.2676 127.195 42.3262C127.195 42.3848 127.177 42.4336 127.141 42.4727C127.104 42.5117 127.051 42.5312 126.98 42.5312C126.91 42.5312 126.857 42.5117 126.82 42.4727C126.785 42.4336 126.768 42.3848 126.768 42.3262ZM128.08 42.8867L128.092 43.1523C128.253 42.9492 128.464 42.8477 128.725 42.8477C129.171 42.8477 129.396 43.0996 129.4 43.6035V45H129.039V43.6016C129.038 43.4492 129.003 43.3366 128.934 43.2637C128.866 43.1908 128.76 43.1543 128.615 43.1543C128.498 43.1543 128.395 43.1855 128.307 43.248C128.218 43.3105 128.149 43.3926 128.1 43.4941V45H127.738V42.8867H128.08ZM130.338 45H129.977V42.8867H130.338V45ZM129.947 42.3262C129.947 42.2676 129.965 42.2181 130 42.1777C130.036 42.1374 130.09 42.1172 130.16 42.1172C130.23 42.1172 130.284 42.1374 130.32 42.1777C130.357 42.2181 130.375 42.2676 130.375 42.3262C130.375 42.3848 130.357 42.4336 130.32 42.4727C130.284 42.5117 130.23 42.5312 130.16 42.5312C130.09 42.5312 130.036 42.5117 130 42.4727C129.965 42.4336 129.947 42.3848 129.947 42.3262ZM131.258 42.8867L131.268 43.1211C131.423 42.9388 131.632 42.8477 131.895 42.8477C132.19 42.8477 132.391 42.9609 132.498 43.1875C132.568 43.0859 132.66 43.0039 132.771 42.9414C132.885 42.8789 133.018 42.8477 133.172 42.8477C133.635 42.8477 133.871 43.0931 133.879 43.584V45H133.518V43.6055C133.518 43.4544 133.483 43.3418 133.414 43.2676C133.345 43.1921 133.229 43.1543 133.066 43.1543C132.932 43.1543 132.821 43.1947 132.732 43.2754C132.644 43.3548 132.592 43.4622 132.578 43.5977V45H132.215V43.6152C132.215 43.3079 132.064 43.1543 131.764 43.1543C131.527 43.1543 131.365 43.2552 131.277 43.457V45H130.916V42.8867H131.258ZM135.73 44.791C135.59 44.9564 135.383 45.0391 135.111 45.0391C134.886 45.0391 134.714 44.974 134.596 44.8438C134.479 44.7122 134.419 44.5182 134.418 44.2617V42.8867H134.779V44.252C134.779 44.5723 134.91 44.7324 135.17 44.7324C135.446 44.7324 135.63 44.6296 135.721 44.4238V42.8867H136.082V45H135.738L135.73 44.791ZM136.973 42.8867L136.982 43.1211C137.137 42.9388 137.346 42.8477 137.609 42.8477C137.905 42.8477 138.106 42.9609 138.213 43.1875C138.283 43.0859 138.374 43.0039 138.486 42.9414C138.6 42.8789 138.733 42.8477 138.887 42.8477C139.35 42.8477 139.586 43.0931 139.594 43.584V45H139.232V43.6055C139.232 43.4544 139.198 43.3418 139.129 43.2676C139.06 43.1921 138.944 43.1543 138.781 43.1543C138.647 43.1543 138.536 43.1947 138.447 43.2754C138.359 43.3548 138.307 43.4622 138.293 43.5977V45H137.93V43.6152C137.93 43.3079 137.779 43.1543 137.479 43.1543C137.242 43.1543 137.079 43.2552 136.992 43.457V45H136.631V42.8867H136.973Z" fill="white"/>
<path d="M124.814 89.1562L125.744 91.4766L126.674 89.1562H127.16V92H126.785V90.8926L126.82 89.6973L125.887 92H125.6L124.668 89.7031L124.705 90.8926V92H124.33V89.1562H124.814ZM128.158 92H127.797V89.8867H128.158V92ZM127.768 89.3262C127.768 89.2676 127.785 89.2181 127.82 89.1777C127.857 89.1374 127.91 89.1172 127.98 89.1172C128.051 89.1172 128.104 89.1374 128.141 89.1777C128.177 89.2181 128.195 89.2676 128.195 89.3262C128.195 89.3848 128.177 89.4336 128.141 89.4727C128.104 89.5117 128.051 89.5312 127.98 89.5312C127.91 89.5312 127.857 89.5117 127.82 89.4727C127.785 89.4336 127.768 89.3848 127.768 89.3262ZM129.08 89.8867L129.092 90.1523C129.253 89.9492 129.464 89.8477 129.725 89.8477C130.171 89.8477 130.396 90.0996 130.4 90.6035V92H130.039V90.6016C130.038 90.4492 130.003 90.3366 129.934 90.2637C129.866 90.1908 129.76 90.1543 129.615 90.1543C129.498 90.1543 129.395 90.1855 129.307 90.248C129.218 90.3105 129.149 90.3926 129.1 90.4941V92H128.738V89.8867H129.08ZM131.338 92H130.977V89.8867H131.338V92ZM130.947 89.3262C130.947 89.2676 130.965 89.2181 131 89.1777C131.036 89.1374 131.09 89.1172 131.16 89.1172C131.23 89.1172 131.284 89.1374 131.32 89.1777C131.357 89.2181 131.375 89.2676 131.375 89.3262C131.375 89.3848 131.357 89.4336 131.32 89.4727C131.284 89.5117 131.23 89.5312 131.16 89.5312C131.09 89.5312 131.036 89.5117 131 89.4727C130.965 89.4336 130.947 89.3848 130.947 89.3262ZM132.258 89.8867L132.268 90.1211C132.423 89.9388 132.632 89.8477 132.895 89.8477C133.19 89.8477 133.391 89.9609 133.498 90.1875C133.568 90.0859 133.66 90.0039 133.771 89.9414C133.885 89.8789 134.018 89.8477 134.172 89.8477C134.635 89.8477 134.871 90.0931 134.879 90.584V92H134.518V90.6055C134.518 90.4544 134.483 90.3418 134.414 90.2676C134.345 90.1921 134.229 90.1543 134.066 90.1543C133.932 90.1543 133.821 90.1947 133.732 90.2754C133.644 90.3548 133.592 90.4622 133.578 90.5977V92H133.215V90.6152C133.215 90.3079 133.064 90.1543 132.764 90.1543C132.527 90.1543 132.365 90.2552 132.277 90.457V92H131.916V89.8867H132.258ZM136.73 91.791C136.59 91.9564 136.383 92.0391 136.111 92.0391C135.886 92.0391 135.714 91.974 135.596 91.8438C135.479 91.7122 135.419 91.5182 135.418 91.2617V89.8867H135.779V91.252C135.779 91.5723 135.91 91.7324 136.17 91.7324C136.446 91.7324 136.63 91.6296 136.721 91.4238V89.8867H137.082V92H136.738L136.73 91.791ZM137.973 89.8867L137.982 90.1211C138.137 89.9388 138.346 89.8477 138.609 89.8477C138.905 89.8477 139.106 89.9609 139.213 90.1875C139.283 90.0859 139.374 90.0039 139.486 89.9414C139.6 89.8789 139.733 89.8477 139.887 89.8477C140.35 89.8477 140.586 90.0931 140.594 90.584V92H140.232V90.6055C140.232 90.4544 140.198 90.3418 140.129 90.2676C140.06 90.1921 139.944 90.1543 139.781 90.1543C139.647 90.1543 139.536 90.1947 139.447 90.2754C139.359 90.3548 139.307 90.4622 139.293 90.5977V92H138.93V90.6152C138.93 90.3079 138.779 90.1543 138.479 90.1543C138.242 90.1543 138.079 90.2552 137.992 90.457V92H137.631V89.8867H137.973Z" fill="white"/>
<path d="M123.814 13.1562L124.744 15.4766L125.674 13.1562H126.16V16H125.785V14.8926L125.82 13.6973L124.887 16H124.6L123.668 13.7031L123.705 14.8926V16H123.33V13.1562H123.814ZM128.07 16C128.049 15.9583 128.033 15.8841 128.02 15.7773C127.852 15.9518 127.651 16.0391 127.418 16.0391C127.21 16.0391 127.038 15.9805 126.904 15.8633C126.771 15.7448 126.705 15.5951 126.705 15.4141C126.705 15.194 126.788 15.0234 126.955 14.9023C127.123 14.7799 127.359 14.7188 127.662 14.7188H128.014V14.5527C128.014 14.4264 127.976 14.3262 127.9 14.252C127.825 14.1764 127.714 14.1387 127.566 14.1387C127.438 14.1387 127.329 14.1712 127.242 14.2363C127.155 14.3014 127.111 14.3802 127.111 14.4727H126.748C126.748 14.3672 126.785 14.2656 126.859 14.168C126.935 14.069 127.036 13.9909 127.164 13.9336C127.293 13.8763 127.434 13.8477 127.588 13.8477C127.831 13.8477 128.022 13.9089 128.16 14.0312C128.298 14.1523 128.37 14.3197 128.375 14.5332V15.5059C128.375 15.6999 128.4 15.8542 128.449 15.9688V16H128.07ZM127.471 15.7246C127.584 15.7246 127.691 15.6953 127.793 15.6367C127.895 15.5781 127.968 15.502 128.014 15.4082V14.9746H127.73C127.288 14.9746 127.066 15.1042 127.066 15.3633C127.066 15.4766 127.104 15.5651 127.18 15.6289C127.255 15.6927 127.352 15.7246 127.471 15.7246ZM129.65 14.6582L130.119 13.8867H130.541L129.85 14.9316L130.562 16H130.145L129.656 15.209L129.168 16H128.748L129.461 14.9316L128.77 13.8867H129.188L129.65 14.6582ZM131.318 16H130.957V13.8867H131.318V16ZM130.928 13.3262C130.928 13.2676 130.945 13.2181 130.98 13.1777C131.017 13.1374 131.07 13.1172 131.141 13.1172C131.211 13.1172 131.264 13.1374 131.301 13.1777C131.337 13.2181 131.355 13.2676 131.355 13.3262C131.355 13.3848 131.337 13.4336 131.301 13.4727C131.264 13.5117 131.211 13.5312 131.141 13.5312C131.07 13.5312 131.017 13.5117 130.98 13.4727C130.945 13.4336 130.928 13.3848 130.928 13.3262ZM132.238 13.8867L132.248 14.1211C132.403 13.9388 132.612 13.8477 132.875 13.8477C133.171 13.8477 133.372 13.9609 133.479 14.1875C133.549 14.0859 133.64 14.0039 133.752 13.9414C133.865 13.8789 133.999 13.8477 134.152 13.8477C134.616 13.8477 134.852 14.0931 134.859 14.584V16H134.498V14.6055C134.498 14.4544 134.464 14.3418 134.395 14.2676C134.326 14.1921 134.21 14.1543 134.047 14.1543C133.913 14.1543 133.801 14.1947 133.713 14.2754C133.624 14.3548 133.573 14.4622 133.559 14.5977V16H133.195V14.6152C133.195 14.3079 133.045 14.1543 132.744 14.1543C132.507 14.1543 132.345 14.2552 132.258 14.457V16H131.896V13.8867H132.238ZM136.711 15.791C136.57 15.9564 136.364 16.0391 136.092 16.0391C135.867 16.0391 135.695 15.974 135.576 15.8438C135.459 15.7122 135.4 15.5182 135.398 15.2617V13.8867H135.76V15.252C135.76 15.5723 135.89 15.7324 136.15 15.7324C136.426 15.7324 136.61 15.6296 136.701 15.4238V13.8867H137.062V16H136.719L136.711 15.791ZM137.953 13.8867L137.963 14.1211C138.118 13.9388 138.327 13.8477 138.59 13.8477C138.885 13.8477 139.087 13.9609 139.193 14.1875C139.264 14.0859 139.355 14.0039 139.467 13.9414C139.58 13.8789 139.714 13.8477 139.867 13.8477C140.331 13.8477 140.566 14.0931 140.574 14.584V16H140.213V14.6055C140.213 14.4544 140.178 14.3418 140.109 14.2676C140.04 14.1921 139.924 14.1543 139.762 14.1543C139.628 14.1543 139.516 14.1947 139.428 14.2754C139.339 14.3548 139.288 14.4622 139.273 14.5977V16H138.91V14.6152C138.91 14.3079 138.76 14.1543 138.459 14.1543C138.222 14.1543 138.06 14.2552 137.973 14.457V16H137.611V13.8867H137.953Z" fill="white"/>
<path d="M124.814 66.1562L125.744 68.4766L126.674 66.1562H127.16V69H126.785V67.8926L126.82 66.6973L125.887 69H125.6L124.668 66.7031L124.705 67.8926V69H124.33V66.1562H124.814ZM129.07 69C129.049 68.9583 129.033 68.8841 129.02 68.7773C128.852 68.9518 128.651 69.0391 128.418 69.0391C128.21 69.0391 128.038 68.9805 127.904 68.8633C127.771 68.7448 127.705 68.5951 127.705 68.4141C127.705 68.194 127.788 68.0234 127.955 67.9023C128.123 67.7799 128.359 67.7188 128.662 67.7188H129.014V67.5527C129.014 67.4264 128.976 67.3262 128.9 67.252C128.825 67.1764 128.714 67.1387 128.566 67.1387C128.438 67.1387 128.329 67.1712 128.242 67.2363C128.155 67.3014 128.111 67.3802 128.111 67.4727H127.748C127.748 67.3672 127.785 67.2656 127.859 67.168C127.935 67.069 128.036 66.9909 128.164 66.9336C128.293 66.8763 128.434 66.8477 128.588 66.8477C128.831 66.8477 129.022 66.9089 129.16 67.0312C129.298 67.1523 129.37 67.3197 129.375 67.5332V68.5059C129.375 68.6999 129.4 68.8542 129.449 68.9688V69H129.07ZM128.471 68.7246C128.584 68.7246 128.691 68.6953 128.793 68.6367C128.895 68.5781 128.968 68.502 129.014 68.4082V67.9746H128.73C128.288 67.9746 128.066 68.1042 128.066 68.3633C128.066 68.4766 128.104 68.5651 128.18 68.6289C128.255 68.6927 128.352 68.7246 128.471 68.7246ZM130.65 67.6582L131.119 66.8867H131.541L130.85 67.9316L131.562 69H131.145L130.656 68.209L130.168 69H129.748L130.461 67.9316L129.77 66.8867H130.188L130.65 67.6582ZM132.318 69H131.957V66.8867H132.318V69ZM131.928 66.3262C131.928 66.2676 131.945 66.2181 131.98 66.1777C132.017 66.1374 132.07 66.1172 132.141 66.1172C132.211 66.1172 132.264 66.1374 132.301 66.1777C132.337 66.2181 132.355 66.2676 132.355 66.3262C132.355 66.3848 132.337 66.4336 132.301 66.4727C132.264 66.5117 132.211 66.5312 132.141 66.5312C132.07 66.5312 132.017 66.5117 131.98 66.4727C131.945 66.4336 131.928 66.3848 131.928 66.3262ZM133.238 66.8867L133.248 67.1211C133.403 66.9388 133.612 66.8477 133.875 66.8477C134.171 66.8477 134.372 66.9609 134.479 67.1875C134.549 67.0859 134.64 67.0039 134.752 66.9414C134.865 66.8789 134.999 66.8477 135.152 66.8477C135.616 66.8477 135.852 67.0931 135.859 67.584V69H135.498V67.6055C135.498 67.4544 135.464 67.3418 135.395 67.2676C135.326 67.1921 135.21 67.1543 135.047 67.1543C134.913 67.1543 134.801 67.1947 134.713 67.2754C134.624 67.3548 134.573 67.4622 134.559 67.5977V69H134.195V67.6152C134.195 67.3079 134.045 67.1543 133.744 67.1543C133.507 67.1543 133.345 67.2552 133.258 67.457V69H132.896V66.8867H133.238ZM137.711 68.791C137.57 68.9564 137.364 69.0391 137.092 69.0391C136.867 69.0391 136.695 68.974 136.576 68.8438C136.459 68.7122 136.4 68.5182 136.398 68.2617V66.8867H136.76V68.252C136.76 68.5723 136.89 68.7324 137.15 68.7324C137.426 68.7324 137.61 68.6296 137.701 68.4238V66.8867H138.062V69H137.719L137.711 68.791ZM138.953 66.8867L138.963 67.1211C139.118 66.9388 139.327 66.8477 139.59 66.8477C139.885 66.8477 140.087 66.9609 140.193 67.1875C140.264 67.0859 140.355 67.0039 140.467 66.9414C140.58 66.8789 140.714 66.8477 140.867 66.8477C141.331 66.8477 141.566 67.0931 141.574 67.584V69H141.213V67.6055C141.213 67.4544 141.178 67.3418 141.109 67.2676C141.04 67.1921 140.924 67.1543 140.762 67.1543C140.628 67.1543 140.516 67.1947 140.428 67.2754C140.339 67.3548 140.288 67.4622 140.273 67.5977V69H139.91V67.6152C139.91 67.3079 139.76 67.1543 139.459 67.1543C139.222 67.1543 139.06 67.2552 138.973 67.457V69H138.611V66.8867H138.953Z" fill="white"/>
<circle cx="29.5" cy="17.5" r="5.5" fill="#FF7B44"/>
<circle cx="67.5" cy="39.5" r="5.5" fill="#FF7B44"/>
<circle cx="34" cy="59" r="2" fill="#FF7B44"/>
<circle cx="55.5" cy="44.5" r="5.5" fill="#FFBB98"/>
<circle cx="44.5" cy="28.5" r="5.5" fill="#FFBB98"/>
<circle cx="48" cy="23" r="4" fill="#682615"/>
<circle cx="86" cy="68" r="4" fill="#682615"/>
<circle cx="75" cy="36" r="4" fill="#8D7B6D"/>
<circle cx="67" cy="60" r="4" fill="#8D7B6D"/>
<circle cx="60" cy="47" r="2" fill="#522014"/>
<defs>
<linearGradient id="paint0_linear" x1="117" y1="13" x2="117" y2="27" gradientUnits="userSpaceOnUse">
<stop stop-color="#711B0F"/>
<stop offset="1" stop-color="#FF7C46"/>
</linearGradient>
<linearGradient id="paint1_linear" x1="117" y1="29" x2="117" y2="45" gradientUnits="userSpaceOnUse">
<stop stop-color="#FF7B44"/>
<stop offset="1" stop-color="#FFD8BE"/>
</linearGradient>
</defs>
</svg>
