<svg width="712" height="465" viewBox="0 0 712 465" fill="none" xmlns="http://www.w3.org/2000/svg">
<path d="M612.575 175.31C616.717 175.31 620.075 171.952 620.075 167.81V95.078C620.075 90.936 616.717 87.578 612.575 87.578H597.423C593.281 87.578 589.923 90.936 589.923 95.078C589.923 99.22 593.281 102.578 597.423 102.578H605.075V167.81C605.075 171.952 608.433 175.31 612.575 175.31Z" fill="#1B9E18"/>
<path d="M419.634 175.31C423.776 175.31 427.134 171.952 427.134 167.81V95.078C427.134 90.936 423.776 87.578 419.634 87.578H404.482C400.34 87.578 396.982 90.936 396.982 95.078C396.982 99.22 400.34 102.578 404.482 102.578H412.134V167.81C412.134 171.952 415.492 175.31 419.634 175.31Z" fill="#1B9E18"/>
<path d="M572.602 115.285C572.602 100.007 560.172 87.577 544.894 87.577C529.616 87.577 517.187 100.007 517.187 115.285V147.602C517.187 162.88 529.616 175.31 544.894 175.31C560.172 175.31 572.602 162.88 572.602 147.602V115.285ZM557.602 147.602C557.602 154.609 551.901 160.31 544.894 160.31C537.887 160.31 532.187 154.609 532.187 147.602V115.285C532.187 108.278 537.887 102.577 544.894 102.577C551.901 102.577 557.602 108.278 557.602 115.285V147.602Z" fill="#1B9E18"/>
<path d="M472.163 87.578C456.885 87.578 444.455 100.008 444.455 115.286V147.603C444.455 162.881 456.885 175.311 472.163 175.311C487.441 175.311 499.871 162.881 499.871 147.603V115.286C499.87 100.007 487.44 87.578 472.163 87.578ZM484.87 147.602C484.87 154.609 479.169 160.31 472.162 160.31C465.155 160.31 459.454 154.609 459.454 147.602V115.285C459.454 108.278 465.155 102.577 472.162 102.577C479.169 102.577 484.87 108.278 484.87 115.285V147.602Z" fill="#1B9E18"/>
<path d="M299.425 87.578H284.272C280.13 87.578 276.772 90.936 276.772 95.078C276.772 99.22 280.13 102.578 284.272 102.578H291.924V167.81C291.924 171.952 295.282 175.31 299.424 175.31C303.566 175.31 306.924 171.952 306.924 167.81V95.078C306.925 90.936 303.567 87.578 299.425 87.578Z" fill="#1B9E18"/>
<path d="M379.661 115.285C379.661 100.007 367.231 87.577 351.953 87.577C336.675 87.577 324.245 100.007 324.245 115.285V147.602C324.245 162.88 336.675 175.31 351.953 175.31C367.231 175.31 379.661 162.88 379.661 147.602V115.285ZM364.661 147.602C364.661 154.609 358.96 160.31 351.953 160.31C344.946 160.31 339.245 154.609 339.245 147.602V115.285C339.245 108.278 344.946 102.577 351.953 102.577C358.96 102.577 364.661 108.278 364.661 115.285V147.602Z" fill="#1B9E18"/>
<path d="M560.042 280.367C564.184 280.367 567.542 277.009 567.542 272.867V200.135C567.542 195.993 564.184 192.635 560.042 192.635H544.89C540.748 192.635 537.39 195.993 537.39 200.135C537.39 204.277 540.748 207.635 544.89 207.635H552.542V272.867C552.542 277.009 555.9 280.367 560.042 280.367Z" fill="#1B9E18"/>
<path d="M367.102 280.367C371.244 280.367 374.602 277.009 374.602 272.867V200.135C374.602 195.993 371.244 192.635 367.102 192.635H351.95C347.808 192.635 344.45 195.993 344.45 200.135C344.45 204.277 347.808 207.635 351.95 207.635H359.602V272.867C359.602 277.009 362.959 280.367 367.102 280.367Z" fill="#1B9E18"/>
<path d="M492.366 192.635C477.088 192.635 464.658 205.065 464.658 220.343V252.66C464.658 267.938 477.088 280.368 492.366 280.368C507.644 280.368 520.074 267.938 520.074 252.66V220.343C520.073 205.064 507.644 192.635 492.366 192.635ZM505.073 252.659C505.073 259.666 499.372 265.367 492.365 265.367C485.358 265.367 479.657 259.666 479.657 252.659V220.342C479.657 213.335 485.358 207.634 492.365 207.634C499.372 207.634 505.073 213.335 505.073 220.342V252.659Z" fill="#1B9E18"/>
<path d="M391.918 252.659C391.918 267.937 404.348 280.367 419.626 280.367C434.904 280.367 447.334 267.937 447.334 252.659V220.342C447.334 205.064 434.904 192.634 419.626 192.634C404.348 192.634 391.918 205.064 391.918 220.342V252.659ZM406.918 220.342C406.918 213.335 412.619 207.634 419.626 207.634C426.633 207.634 432.334 213.335 432.334 220.342V252.659C432.334 259.666 426.633 265.367 419.626 265.367C412.619 265.367 406.918 259.666 406.918 252.659V220.342Z" fill="#1B9E18"/>
<path d="M299.425 192.635C284.147 192.635 271.717 205.065 271.717 220.343V252.66C271.717 267.938 284.147 280.368 299.425 280.368C314.703 280.368 327.133 267.938 327.133 252.66V220.343C327.132 205.064 314.703 192.635 299.425 192.635ZM312.132 252.659C312.132 259.666 306.431 265.367 299.424 265.367C292.417 265.367 286.716 259.666 286.716 252.659V220.342C286.716 213.335 292.417 207.634 299.424 207.634C306.431 207.634 312.132 213.335 312.132 220.342V252.659Z" fill="#1B9E18"/>
<path d="M584.868 252.659C584.868 267.937 597.298 280.367 612.576 280.367C627.854 280.367 640.284 267.937 640.284 252.659V220.342C640.284 205.064 627.854 192.634 612.576 192.634C597.298 192.634 584.868 205.064 584.868 220.342V252.659ZM599.868 220.342C599.868 213.335 605.569 207.634 612.576 207.634C619.583 207.634 625.284 213.335 625.284 220.342V252.659C625.284 259.666 619.583 265.367 612.576 265.367C605.569 265.367 599.868 259.666 599.868 252.659V220.342Z" fill="#1B9E18"/>
<path d="M270.81 33.03H239.83C235.688 33.03 232.33 36.388 232.33 40.53V327.42C232.33 331.562 235.688 334.92 239.83 334.92H672.17C676.312 334.92 679.67 331.562 679.67 327.42V40.53C679.67 36.388 676.312 33.03 672.17 33.03H305.81C301.668 33.03 298.31 36.388 298.31 40.53C298.31 44.672 301.668 48.03 305.81 48.03H664.67V319.92H247.33V48.03H270.81C274.952 48.03 278.31 44.672 278.31 40.53C278.31 36.388 274.952 33.03 270.81 33.03Z" fill="#1B9E18"/>
<path d="M684.3 0.700012H227.7C212.426 0.700012 200 13.131 200 28.41V339.54C200 354.814 212.426 367.24 227.7 367.24H388.648L380.89 416.89H363.07C358.928 416.89 355.57 420.248 355.57 424.39V456.72C355.57 460.862 358.928 464.22 363.07 464.22H548.93C553.072 464.22 556.43 460.862 556.43 456.72V424.39C556.43 420.248 553.072 416.89 548.93 416.89H531.11L523.352 367.24H600.57C604.712 367.24 608.07 363.882 608.07 359.74C608.07 355.598 604.712 352.24 600.57 352.24H227.7C220.697 352.24 215 346.543 215 339.54V28.41C215 21.402 220.697 15.7 227.7 15.7H684.3C691.303 15.7 697 21.402 697 28.41V339.54C697 346.542 691.303 352.24 684.3 352.24H635.57C631.428 352.24 628.07 355.598 628.07 359.74C628.07 363.882 631.428 367.24 635.57 367.24H684.3C699.574 367.24 712 354.814 712 339.54V28.41C712 13.131 699.574 0.700012 684.3 0.700012ZM515.928 416.89H502.79C498.648 416.89 495.29 420.248 495.29 424.39C495.29 428.532 498.648 431.89 502.79 431.89H541.43V449.22H370.57V431.89H467.79C471.932 431.89 475.29 428.532 475.29 424.39C475.29 420.248 471.932 416.89 467.79 416.89H396.072L403.83 367.24H508.17L515.928 416.89Z" fill="#1B9E18"/>
<rect y="152.7" width="221" height="62" fill="#1B9E18"/>
<path d="M277.169 167.059C283.79 170.917 283.79 180.483 277.169 184.341L142.034 263.07C135.367 266.954 127 262.145 127 254.43L127 96.9705C127 89.255 135.367 84.446 142.034 88.33L277.169 167.059Z" fill="#1B9E18"/>
<rect x="466" y="416.9" width="39" height="15" fill="#1B9E18"/>
<rect x="594" y="352.3" width="48" height="15" fill="#1B9E18"/>
<rect x="267" y="33" width="42" height="15" fill="#1B9E18"/>
</svg>
