<svg width="712" height="464" viewBox="0 0 712 464" fill="none" xmlns="http://www.w3.org/2000/svg">
<path d="M612.575 174.61C616.717 174.61 620.075 171.252 620.075 167.11V94.378C620.075 90.236 616.717 86.878 612.575 86.878H597.423C593.281 86.878 589.923 90.236 589.923 94.378C589.923 98.52 593.281 101.878 597.423 101.878H605.075V167.11C605.075 171.252 608.433 174.61 612.575 174.61Z" fill="#8D8D8D"/>
<path d="M419.634 174.61C423.776 174.61 427.134 171.252 427.134 167.11V94.378C427.134 90.236 423.776 86.878 419.634 86.878H404.482C400.34 86.878 396.982 90.236 396.982 94.378C396.982 98.52 400.34 101.878 404.482 101.878H412.134V167.11C412.134 171.252 415.492 174.61 419.634 174.61Z" fill="#8D8D8D"/>
<path d="M572.602 114.585C572.602 99.307 560.172 86.877 544.894 86.877C529.616 86.877 517.187 99.307 517.187 114.585V146.902C517.187 162.18 529.616 174.61 544.894 174.61C560.172 174.61 572.602 162.18 572.602 146.902V114.585ZM557.602 146.902C557.602 153.909 551.901 159.61 544.894 159.61C537.887 159.61 532.187 153.909 532.187 146.902V114.585C532.187 107.578 537.887 101.877 544.894 101.877C551.901 101.877 557.602 107.578 557.602 114.585V146.902Z" fill="#8D8D8D"/>
<path d="M472.163 86.878C456.885 86.878 444.455 99.308 444.455 114.586V146.903C444.455 162.181 456.885 174.611 472.163 174.611C487.441 174.611 499.871 162.181 499.871 146.903V114.586C499.87 99.307 487.44 86.878 472.163 86.878ZM484.87 146.902C484.87 153.909 479.169 159.61 472.162 159.61C465.155 159.61 459.454 153.909 459.454 146.902V114.585C459.454 107.578 465.155 101.877 472.162 101.877C479.169 101.877 484.87 107.578 484.87 114.585V146.902Z" fill="#8D8D8D"/>
<path d="M299.425 86.878H284.272C280.13 86.878 276.772 90.236 276.772 94.378C276.772 98.52 280.13 101.878 284.272 101.878H291.924V167.11C291.924 171.252 295.282 174.61 299.424 174.61C303.566 174.61 306.924 171.252 306.924 167.11V94.378C306.925 90.236 303.567 86.878 299.425 86.878Z" fill="#8D8D8D"/>
<path d="M379.661 114.585C379.661 99.307 367.231 86.877 351.953 86.877C336.675 86.877 324.245 99.307 324.245 114.585V146.902C324.245 162.18 336.675 174.61 351.953 174.61C367.231 174.61 379.661 162.18 379.661 146.902V114.585ZM364.661 146.902C364.661 153.909 358.96 159.61 351.953 159.61C344.946 159.61 339.245 153.909 339.245 146.902V114.585C339.245 107.578 344.946 101.877 351.953 101.877C358.96 101.877 364.661 107.578 364.661 114.585V146.902Z" fill="#8D8D8D"/>
<path d="M560.042 279.667C564.184 279.667 567.542 276.309 567.542 272.167V199.435C567.542 195.293 564.184 191.935 560.042 191.935H544.89C540.748 191.935 537.39 195.293 537.39 199.435C537.39 203.577 540.748 206.935 544.89 206.935H552.542V272.167C552.542 276.309 555.9 279.667 560.042 279.667Z" fill="#8D8D8D"/>
<path d="M367.102 279.667C371.244 279.667 374.602 276.309 374.602 272.167V199.435C374.602 195.293 371.244 191.935 367.102 191.935H351.95C347.808 191.935 344.45 195.293 344.45 199.435C344.45 203.577 347.808 206.935 351.95 206.935H359.602V272.167C359.602 276.309 362.959 279.667 367.102 279.667Z" fill="#8D8D8D"/>
<path d="M492.366 191.935C477.088 191.935 464.658 204.365 464.658 219.643V251.96C464.658 267.238 477.088 279.668 492.366 279.668C507.644 279.668 520.074 267.238 520.074 251.96V219.643C520.073 204.364 507.644 191.935 492.366 191.935V191.935ZM505.073 251.959C505.073 258.966 499.372 264.667 492.365 264.667C485.358 264.667 479.657 258.966 479.657 251.959V219.642C479.657 212.635 485.358 206.934 492.365 206.934C499.372 206.934 505.073 212.635 505.073 219.642V251.959Z" fill="#8D8D8D"/>
<path d="M391.918 251.959C391.918 267.237 404.348 279.667 419.626 279.667C434.904 279.667 447.334 267.237 447.334 251.959V219.642C447.334 204.364 434.904 191.934 419.626 191.934C404.348 191.934 391.918 204.364 391.918 219.642V251.959ZM406.918 219.642C406.918 212.635 412.619 206.934 419.626 206.934C426.633 206.934 432.334 212.635 432.334 219.642V251.959C432.334 258.966 426.633 264.667 419.626 264.667C412.619 264.667 406.918 258.966 406.918 251.959V219.642Z" fill="#8D8D8D"/>
<path d="M299.425 191.935C284.147 191.935 271.717 204.365 271.717 219.643V251.96C271.717 267.238 284.147 279.668 299.425 279.668C314.703 279.668 327.133 267.238 327.133 251.96V219.643C327.132 204.364 314.703 191.935 299.425 191.935V191.935ZM312.132 251.959C312.132 258.966 306.431 264.667 299.424 264.667C292.417 264.667 286.716 258.966 286.716 251.959V219.642C286.716 212.635 292.417 206.934 299.424 206.934C306.431 206.934 312.132 212.635 312.132 219.642V251.959Z" fill="#8D8D8D"/>
<path d="M584.868 251.959C584.868 267.237 597.298 279.667 612.576 279.667C627.854 279.667 640.284 267.237 640.284 251.959V219.642C640.284 204.364 627.854 191.934 612.576 191.934C597.298 191.934 584.868 204.364 584.868 219.642V251.959ZM599.868 219.642C599.868 212.635 605.569 206.934 612.576 206.934C619.583 206.934 625.284 212.635 625.284 219.642V251.959C625.284 258.966 619.583 264.667 612.576 264.667C605.569 264.667 599.868 258.966 599.868 251.959V219.642Z" fill="#8D8D8D"/>
<path d="M270.81 32.33H239.83C235.688 32.33 232.33 35.688 232.33 39.83V326.72C232.33 330.862 235.688 334.22 239.83 334.22H672.17C676.312 334.22 679.67 330.862 679.67 326.72V39.83C679.67 35.688 676.312 32.33 672.17 32.33H305.81C301.668 32.33 298.31 35.688 298.31 39.83C298.31 43.972 301.668 47.33 305.81 47.33H664.67V319.22H247.33V47.33H270.81C274.952 47.33 278.31 43.972 278.31 39.83C278.31 35.688 274.952 32.33 270.81 32.33V32.33Z" fill="#8D8D8D"/>
<path d="M684.3 0H227.7C212.426 0 200 12.431 200 27.71V338.84C200 354.114 212.426 366.54 227.7 366.54H388.648L380.89 416.19H363.07C358.928 416.19 355.57 419.548 355.57 423.69V456.02C355.57 460.162 358.928 463.52 363.07 463.52H548.93C553.072 463.52 556.43 460.162 556.43 456.02V423.69C556.43 419.548 553.072 416.19 548.93 416.19H531.11L523.352 366.54H600.57C604.712 366.54 608.07 363.182 608.07 359.04C608.07 354.898 604.712 351.54 600.57 351.54H227.7C220.697 351.54 215 345.843 215 338.84V27.71C215 20.702 220.697 15 227.7 15H684.3C691.303 15 697 20.702 697 27.71V338.84C697 345.842 691.303 351.54 684.3 351.54H635.57C631.428 351.54 628.07 354.898 628.07 359.04C628.07 363.182 631.428 366.54 635.57 366.54H684.3C699.574 366.54 712 354.114 712 338.84V27.71C712 12.431 699.574 0 684.3 0V0ZM515.928 416.19H502.79C498.648 416.19 495.29 419.548 495.29 423.69C495.29 427.832 498.648 431.19 502.79 431.19H541.43V448.52H370.57V431.19H467.79C471.932 431.19 475.29 427.832 475.29 423.69C475.29 419.548 471.932 416.19 467.79 416.19H396.072L403.83 366.54H508.17L515.928 416.19Z" fill="#8D8D8D"/>
<rect y="152" width="221" height="62" fill="#8D8D8D"/>
<path d="M277.169 166.359C283.79 170.217 283.79 179.783 277.169 183.641L142.034 262.37C135.367 266.254 127 261.445 127 253.729L127 96.2705C127 88.555 135.367 83.746 142.034 87.63L277.169 166.359Z" fill="#8D8D8D"/>
<rect x="466" y="416.2" width="39" height="15" fill="#8D8D8D"/>
<rect x="594" y="351.6" width="48" height="15" fill="#8D8D8D"/>
<rect x="267" y="32.3" width="42" height="15" fill="#8D8D8D"/>
</svg>
